<?xml version="1.0" encoding="utf-8"?>
<!DOCTYPE svg PUBLIC "-//W3C//DTD SVG 1.1//EN" "http://www.w3.org/Graphics/SVG/1.1/DTD/svg11.dtd">
<svg version="1.1" id="图形" xmlns="http://www.w3.org/2000/svg" xmlns:xlink="http://www.w3.org/1999/xlink" x="0px" y="0px" width="1024px" height="1024px" viewBox="0 0 1024 1024" enable-background="new 0 0 1024 1024" xml:space="preserve">
  <path fill="#555" d="M815.847 509.592c12.248-42.216 15.995-84.101 11.237-125.645-4.772-41.53-16.693-80.174-35.756-115.93-19.068-35.743-44.778-67.073-77.119-93.968-32.345-26.901-69.292-46.477-110.831-58.738-42.222-12.937-84.102-17.025-125.639-12.258-41.538 4.762-80.18 16.683-115.935 35.756-35.747 19.064-67.073 44.603-93.968 76.607-26.901 32-46.481 69.112-58.738 111.339-12.936 41.534-17.015 83.244-12.253 125.124 4.772 41.88 16.688 80.696 35.742 116.447 19.077 35.751 44.608 67.074 76.616 93.973 32.009 26.897 69.117 46.818 111.336 59.753 42.216 12.257 84.1 16.010 125.649 11.238 41.529-4.766 80.174-16.682 115.925-35.756 35.755-19.062 67.243-44.773 94.48-77.114 27.252-32.346 46.984-69.287 59.257-110.827v0 0zM536.982 462.604c2.722 6.133 5.625 13.965 8.68 23.5 3.065 9.529 7.666 20.762 13.79 33.697 6.133 12.941 14.644 26.901 25.539 41.885 10.895 14.985 25.88 31.326 44.945 49.029 9.538 9.533 12.086 19.747 7.665 30.648-4.43 10.895-13.452 19.742-27.071 26.549-23.827 11.579-46.135 17.366-66.898 17.366-20.776 0-38.995-2.717-54.658-8.163-19.068-6.811-33.366-19.581-42.9-38.304-9.534-18.727-12.941-38.992-10.213-60.782 2.040-21.79 7.495-42.052 16.346-60.773 8.852-18.728 18.722-33.704 29.624-44.941 10.891-11.242 21.616-18.215 32.175-20.947 10.552-2.723 18.214 1.023 22.976 11.237v0 0zM546.179 379.868c2.718-3.407 8.339-8.173 16.854-14.307 8.515-6.122 17.196-15.15 26.047-27.060 8.846-11.916 17.191-27.072 25.021-45.456 7.836-18.381 12.77-40.86 14.81-67.414 1.361-12.94 9.202-19.576 23.499-19.918 14.297-0.346 28.602 4.255 42.9 13.785 20.434 14.298 35.234 30.476 44.437 48.521 9.192 18.049 13.443 36.26 12.765 54.645-0.683 18.391-5.792 35.926-15.317 52.609-9.543 16.683-22.821 30.472-39.836 41.368-17.707 10.89-37.634 17.531-59.762 19.917-22.129 2.382-42.047 1.532-59.758-2.552-17.707-4.079-30.472-10.901-38.294-20.425-7.838-9.539-5.627-20.777 6.634-33.712v0 0zM471.617 417.664c-14.306-2.723-36.439-4.084-66.408-4.084-29.959 0-68.771 8.846-116.439 26.554-15.658 6.13-27.583 3.237-35.746-8.684-8.173-11.92-11.58-27.066-10.223-45.452 3.401-27.915 10.896-51.931 22.47-72.015 11.575-20.089 22.821-35.576 33.717-46.472 14.301-13.623 31.668-21.616 52.088-24.002 20.438-2.386 40.856 4.25 61.294 19.913 26.555 19.069 46.131 40.178 58.734 63.335 12.594 23.147 20.25 41.534 22.977 55.152 1.361 9.53-0.171 18.22-4.592 26.046-4.428 7.826-10.391 11.070-17.872 9.709v0 0zM549.244-103.112h-80.7l-0 188.966h80.7l0-188.966zM634.020-88.811c38.821-2.727 66.911-7.841 84.268-15.322 17.371-7.484 26.051-16.010 26.051-25.534 0-6.138-6.134-11.066-18.382-14.814-12.261-3.752-28.769-6.807-49.545-9.192-20.772-2.386-45.291-3.923-73.552-4.601-28.252-0.674-58.388-1.020-90.397-1.020-31.995 0-62.476 0.175-91.415 0.517-28.945 0.333-54.304 1.523-76.095 3.572-21.796 2.039-38.987 5.103-51.59 9.192-12.594 4.084-18.888 9.525-18.888 16.341 0 8.851 7.315 17.196 21.958 25.027 14.637 7.822 42.052 13.107 82.228 15.828l255.359 0.005zM634.020-88.811z" transform="translate(0, 812) scale(1, -1)"/>
</svg>
