<?xml version="1.0" encoding="utf-8"?>
<!DOCTYPE svg PUBLIC "-//W3C//DTD SVG 1.1//EN" "http://www.w3.org/Graphics/SVG/1.1/DTD/svg11.dtd">
<svg version="1.1" id="图形" xmlns="http://www.w3.org/2000/svg" xmlns:xlink="http://www.w3.org/1999/xlink" x="0px" y="0px" width="1024px" height="1024px" viewBox="0 0 1024 1024" enable-background="new 0 0 1024 1024" xml:space="preserve">
  <path fill="#272636" d="M710.2592 446.9312l-17.056 0 0-428.3264-56.2816 0L636.9216 446.9312 543.1168 446.9312l0-428.3264-56.2816 0L486.8352 446.9312 393.0368 446.9312l0-428.3264-56.2816 0L336.7552 446.9312l-35.8144 0c-42.3808 0-76.7488 0.6144-76.7488 0l0-447.5264c0-41.2032 34.368-74.5984 76.7488-74.5984l409.312 0c42.3936 0 76.7424 33.3952 76.7424 74.5984L786.9952 446.9312C787.0016 450.08 752.6528 446.9312 710.2592 446.9312zM823.8656 581.4016 655.68 581.4016l0 45.7728c0 26.528-47.4112 48.0256-75.0464 48.0256l-150.08 0c-27.6224 0-75.04-21.4976-75.04-48.0256l0-45.7728L187.36 581.4016c-21.1008 0-38.2016-16.8-38.2016-37.5232 0-20.7168 17.0944-37.5168 38.2016-37.5168l636.5056 0c21.0816 0 38.176 16.8 38.176 37.5168C862.0352 564.6016 844.9408 581.4016 823.8656 581.4016zM580.64 581.4016l-150.08 0L430.56 600.16l150.08 0L580.64 581.4016z" transform="translate(0, 812) scale(1, -1)"/>
</svg>
