<?xml version="1.0" encoding="utf-8"?>
<!DOCTYPE svg PUBLIC "-//W3C//DTD SVG 1.1//EN" "http://www.w3.org/Graphics/SVG/1.1/DTD/svg11.dtd">
<svg version="1.1" id="图形" xmlns="http://www.w3.org/2000/svg" xmlns:xlink="http://www.w3.org/1999/xlink" x="0px" y="0px" width="1024px" height="1024px" viewBox="0 0 1024 1024" enable-background="new 0 0 1024 1024" xml:space="preserve">
  <path fill="#272636" d="M378.675994 427.335107c-21.481244 20.063965-43.669592 38.767955-67.418482 54.467519-35.253922 23.124673-75.353199 41.035602-121.121592 41.262776-46.50415 0-79.491449 0-102.984513 0l0-114.320699c23.520693 0 56.509015 0 102.984513 0 18.420535 0.565888 48.204885-12.072967 83.515089-41.091884 8.81476-7.085372 17.854647-15.07637 27.00812-23.63428 11.477402 12.07092 23.125697 24.65554 35.254945 37.747719C349.91188 396.899934 364.194164 412.14515 378.675994 427.335107zM480.753857 159.247302c21.537526-19.896142 43.869137-38.429241 67.701938-53.957913 35.70827-23.181979 76.317153-40.922015 122.45496-41.035602 45.228087 0 65.547879 0 88.727811 0l0-90.572832 178.424692 150.312424L759.638565 274.700801l0-96.127338c-23.179932 0-43.499723 0-88.727811 0-19.811208-0.565888-50.104141 12.242835-85.756129 41.259706-8.586562 6.80294-17.371646 14.511505-26.270317 22.672372-10.598382-11.165294-21.367657-22.727631-32.533974-34.800597C511.444856 191.610384 496.226247 175.399167 480.753857 159.247302zM668.643108 408.744703c0.168846 0 0.340761 0 0.508583 0 46.164413 0 67.023486 0 90.486874 0l0-92.102674 178.424692 150.311401L759.638565 617.661873l0-94.595448c-23.463388 0-44.322461 0-90.486874 0-61.410652-0.680499-111.230314-31.061436-155.524123-66.654073-66.426899-54.242392-126.335337-127.924531-184.063109-185.792497-28.595268-28.849048-56.366775-53.561893-81.051991-69.544913-24.625864-16.039301-44.689828-22.500457-59.709917-22.500457-0.141216 0-0.282433 0-0.397043 0-45.569872 0-78.04654 0-101.256148 0l0-114.320699c23.209608 0 55.686277 0 101.256148 0 61.780065 0.566912 112.393813 30.775934 157.254533 66.37164 67.249637 54.296627 127.384225 128.147612 184.969759 186.072883 28.453029 28.962635 56.026014 53.731762 80.283488 69.656453C635.11755 402.340853 654.615627 408.744703 668.643108 408.744703z" transform="translate(0, 812) scale(1, -1)"/>
</svg>
