<?xml version="1.0" encoding="utf-8"?>
<!DOCTYPE svg PUBLIC "-//W3C//DTD SVG 1.1//EN" "http://www.w3.org/Graphics/SVG/1.1/DTD/svg11.dtd">
<svg version="1.1" id="图形" xmlns="http://www.w3.org/2000/svg" xmlns:xlink="http://www.w3.org/1999/xlink" x="0px" y="0px" width="1024px" height="1024px" viewBox="0 0 1024 1024" enable-background="new 0 0 1024 1024" xml:space="preserve">
  <path fill="#272636" d="M306.703622 97.062411c55.871322 0.062426 87.114955 0.097667 142.986278 0.160093 160.404697 155.916158 435.315002 423.238687 498.892284 485.052579 9.867286 9.595491 17.427771 20.851314 22.510005 33.472456 0.266009 0.656481 0.534097 1.328064 0.809458 2.01173 31.667586 79.079735-48.284859 157.334841-130.158599 127.31797-12.21565-4.479574-19.906022-7.445819-20.472331-7.994564-1.266662-1.227377-332.505493-323.668098-515.037806-501.399147 0.165217-54.154616 0.258736-84.425219 0.42707-138.579834L306.703622 97.062411zM1039.659224 362.598749c0 34.439053-28.810063 62.356596-64.352449 62.356596s-64.355567-27.916536-64.355567-62.356596l0-368.679308c0-16.986939-7.051327-32.345766-18.419072-43.592528-11.606738-11.011153-27.456117-17.847815-44.98468-17.847815L195.394282-67.520902c-35.544465 0-64.355567 27.916536-64.355567 62.359617L131.038716 624.928198c0 34.439053 28.810063 62.356596 64.355567 62.356596l380.479662 0c35.541347 0 64.352449 27.919556 64.352449 62.359617s-28.810063 62.356596-64.352449 62.356596L67.536249 812.001007c-35.541347 0-64.355567-27.916536-64.355567-62.356596l0-879.522916c0-17.241678 7.226935-32.848195 18.904331-44.135232 11.648301-11.315229 27.754338-18.318024 45.547872-18.318024l907.673889 0c17.796651 0 33.902688 7.002795 45.550989 18.318024 11.674279 11.287036 18.901214 26.893554 18.901214 44.135232L1039.758978 219.241306 1039.659224 362.598749z" transform="translate(0, 812) scale(1, -1)"/>
</svg>
