<?xml version="1.0" encoding="utf-8"?>
<!DOCTYPE svg PUBLIC "-//W3C//DTD SVG 1.1//EN" "http://www.w3.org/Graphics/SVG/1.1/DTD/svg11.dtd">
<svg version="1.1" id="图形" xmlns="http://www.w3.org/2000/svg" xmlns:xlink="http://www.w3.org/1999/xlink" x="0px" y="0px" width="1024px" height="1024px" viewBox="0 0 1024 1024" enable-background="new 0 0 1024 1024" xml:space="preserve">
  <path fill="#555555" d="M15.753846 796.246154 15.753846 796.246154 15.753846 796.246154ZM897.969231 670.215385l0-819.2-661.661538 0c-52.208246 0-94.523077 42.314831-94.523077 94.523077s42.314831 94.523077 94.523077 94.523077l598.646154 0 0 756.184615-630.153846 0c-69.316923 0-126.030769-56.713846-126.030769-126.030769l0-756.184615c0-69.316923 56.713846-126.030769 126.030769-126.030769l756.184615 0 0 882.215385-63.015385 0zM267.815385-22.953846l567.138462 0 0-63.015385-567.138462 0z" transform="translate(0, 812) scale(1, -1)"/>
</svg>
