<?xml version="1.0" encoding="utf-8"?>
<!DOCTYPE svg PUBLIC "-//W3C//DTD SVG 1.1//EN" "http://www.w3.org/Graphics/SVG/1.1/DTD/svg11.dtd">
<svg version="1.1" id="图形" xmlns="http://www.w3.org/2000/svg" xmlns:xlink="http://www.w3.org/1999/xlink" x="0px" y="0px" width="1000px" height="1024px" viewBox="0 0 1000 1024" enable-background="new 0 0 1000 1024" xml:space="preserve">
  <path fill="#272636" d="M993.8999 631.8114c-45.0761 72.7225-199.6011 4.9266-362.1339-96.8511l-180.0926 91.9255 4.2683 2.4963c8.8054 5.1385 11.8384 16.5348 6.7427 25.4717-5.0648 8.9229-16.3425 11.9709-25.1479 6.8174l-25.1769-14.718L234.1959 737.8942c-17.6097 10.291-40.1373 4.1812-50.3277-13.6787-10.1585-17.8299-4.1214-40.6524 13.4884-50.9583l6.3959-3.2648 227.9959-272.2569c-97.4196-71.7202-180.6852-139.1394-222.9001-174.0037-0.8914 0.3488-1.7929 0.6755-2.7163 0.9573L50.9703 272.2199c-19.7603 6.0369-39.6086-5.5652-44.3196-25.9284l-4.0314-17.4331c37.5939-18.5354 73.4029-52.2675 99.1185-97.3938 25.6536-45.0014 36.6095-93.1207 33.7564-135.271l16.6303-5.0905c19.7883-6.0639 39.6066 5.5372 44.3176 25.9134l23.466 101.49c4.1753 1.6918 8.3277 3.7145 12.4021 6.0969C232.3111 124.6013 1079.6809 493.4105 993.8999 631.8114zM726.2765 119.6396l10.0016 175.4477c-61.9853-45.0324-127.7291-88.278-189.2457-126.6709l93.3372-264.3802-0.4067-7.1471c-0.029-20.57 16.4305-37.2517 36.7804-37.2367 20.349 0.014 36.8394 16.7086 36.8394 37.2787l10.1565 178.2038 20.1751 11.789c8.8054 5.1525 11.8384 16.5497 6.7417 25.4867C745.713 121.0687 734.9819 124.1716 726.2765 119.6396z" transform="translate(0, 812) scale(1, -1)"/>
</svg>
