<?xml version="1.0" encoding="utf-8"?>
<!DOCTYPE svg PUBLIC "-//W3C//DTD SVG 1.1//EN" "http://www.w3.org/Graphics/SVG/1.1/DTD/svg11.dtd">
<svg version="1.1" id="图形" xmlns="http://www.w3.org/2000/svg" xmlns:xlink="http://www.w3.org/1999/xlink" x="0px" y="0px" width="1024px" height="1024px" viewBox="0 0 1024 1024" enable-background="new 0 0 1024 1024" xml:space="preserve">
  <path fill="#272636" d="M213.248 796.608C212.896 796.64 212.768 796.64 212.928 796.576c-0.32-0.032-0.448-0.096 0.32-0.096 0.8 0 0.64 0.032 0.352 0.096C213.792 796.64 213.632 796.64 213.248 796.608zM1022.4 301.312 930.24 713.344c-1.312 4.928-3.392 9.376-6.112 13.376-9.856 19.936-24.896 37.568-44.832 50.464-21.024 13.504-34.016 19.328-57.216 19.296l-10.432 0.288L213.248 796.48 200.416 796.48l0-274.912 0.96-265.92 0-65.696c125.632-14.304 231.232-118.592 234.816-248.32-0.32-3.744 0-7.488 0-11.392 0-69.376 45.728-127.008 114.24-127.008 58.912 0 108.096 41.568 120.8 97.312l0.608-0.064c7.008 31.808 10.816 64.832 10.816 98.784 0 52.32-4.448 108-20.576 154.72l239.264 0.832c2.208 0 4.32 0.16 6.432 0.48 40.64 1.664 74.176 16.864 97.28 54.496 14.656 23.936 20.48 50.88 18.592 76.928C1024.032 291.52 1023.648 296.448 1022.4 301.312zM932.064 243.808c-7.52-12.288-20.768-18.688-34.048-18.016l0-0.128c-0.032 0-16.128-0.48-16.128-0.48l-268.608-0.32c-21.6 0-42.464-2.016-42.464-23.84 0-6.272 1.44-12.16 4.032-17.472l-0.384-0.384c15.584-29.408 26.944-61.44 33.376-95.296l0.512 0c0 0 5.184-21.376 5.12-62.304-0.064-32.48-6.208-62.688-6.208-62.688 0-20.48-20.352-56.416-48.096-57.344-20.192 0-54.048 16.448-48.64 58.016 0 0 0.352 31.712-5.76 63.712-2.624 13.632-6.208 26.336-9.504 36.352-0.096-0.032-0.16-0.064-0.224-0.096-36.992 103.008-108.8 146.176-206.688 190.304L288.544 700.384 811.328 700.96c1.728 0 3.392-0.192 5.056 0 5.088-0.672 10.112-2.464 14.688-5.408 6.56-4.192 11.328-10.176 14.112-16.928l0.096 0.032 90.944-403.04-0.352-0.064C939.168 265.312 938.112 253.696 932.064 243.808zM112 700.736c26.528 0 48 21.504 48 48s-21.472 48-48 48l-64 0c-3.328 0-6.56-0.352-9.664-0.96C16.448 791.296 0 771.968 0 748.736l0-508.48c0-26.528 21.472-48 48-48l64 0c26.528 0 48 21.504 48 48s-21.472 48-48 48L96 288.256 96 700.736 112 700.736z" transform="translate(0, 812) scale(1, -1)"/>
</svg>
