<?xml version="1.0" encoding="utf-8"?>
<!DOCTYPE svg PUBLIC "-//W3C//DTD SVG 1.1//EN" "http://www.w3.org/Graphics/SVG/1.1/DTD/svg11.dtd">
<svg version="1.1" id="图形" xmlns="http://www.w3.org/2000/svg" xmlns:xlink="http://www.w3.org/1999/xlink" x="0px" y="0px" width="1024px" height="1024px" viewBox="0 0 1024 1024" enable-background="new 0 0 1024 1024" xml:space="preserve">
  <path fill="#272636" d="M84.634624 0.164608 376.712192 133.329664c12.879872-16.548864 57.4976-25.691136 57.4976-25.691136 97.777664 0.932864 176.877568 126.524416 176.877568 126.524416L805.65248 634.722048c31.927296 65.7664 72.885248 26.925056 72.885248 26.925056 42.753024-23.825408 125.514752-198.740992 57.556992-326.621184-67.95776-127.84128-57.78432-381.48608-73.793536-398.906368-16.033792-17.389568-53.60128-6.465536-53.60128-6.465536l25.561088 287.924224c0 0-93.116416 50.415616-122.610688-65.540096-29.503488-115.94752-123.082752-181.633024-123.082752-181.633024-111.460352-67.873792-442.151936-31.638528-499.209216-9.52832C32.308224-17.002752 84.634624 0.164608 84.634624 0.164608z" transform="translate(0, 812) scale(1, -1)"/>
</svg>
