<?xml version="1.0" encoding="utf-8"?>
<!-- Generator: Adobe Illustrator 16.0.0, SVG Export Plug-In . SVG Version: 6.00 Build 0)  -->
<!DOCTYPE svg PUBLIC "-//W3C//DTD SVG 1.1//EN" "http://www.w3.org/Graphics/SVG/1.1/DTD/svg11.dtd">
<svg version="1.1" id="Layer_1" xmlns="http://www.w3.org/2000/svg" xmlns:xlink="http://www.w3.org/1999/xlink" x="0px" y="0px"
	 width="512px" height="512px" viewBox="0 0 512 512" enable-background="new 0 0 512 512" xml:space="preserve">
<g>
	<g>
		<g>
			<path fill="#FFEEAD" d="M7.923,256.003c0-137.021,111.07-248.082,248.074-248.082c137.014,0,248.082,111.062,248.082,248.082
				c0,137.005-111.068,248.075-248.082,248.075C118.993,504.079,7.923,393.008,7.923,256.003z"/>
		</g>
	</g>
	<g>
		<g>
			<path fill="#DB2A2A" d="M316.468,142.917c-26.877,0-51.84,13.098-66.852,35.051l-3.098,3.939l-2.066-2.635
				c-14.832-22.771-39.85-36.355-67-36.355c-46.332,0-79.957,33.624-79.957,79.947c0,68.4,123.816,169.199,132.842,176.457
				c4.271,4.072,9.848,6.31,15.764,6.31c5.92,0,11.496-2.237,15.768-6.319c9.055-7.302,134.547-109.699,134.547-176.447
				C396.415,176.542,362.792,142.917,316.468,142.917z"/>
		</g>
		<g>
			<path fill="#D61E1E" d="M246.519,181.908l-2.066-2.635c-14.832-22.771-39.85-36.355-67-36.355
				c-46.332,0-79.957,33.624-79.957,79.947c0,68.4,123.816,169.199,132.842,176.457c4.271,4.072,9.848,6.31,15.764,6.31
				L246.519,181.908z"/>
		</g>
	</g>
	<g>
		<g>
			<path fill="#D63636" d="M146.628,160.593c-25.73,10.208-36.58,37.972-34.531,64.182c1.156,14.725,24.291,15.321,23.115,0.454
				c-0.92-11.841-0.1-24.575,7.82-34.14c2.363-2.854,4.904-5.08,7.475-6.748c1.33-0.86,7.492-3.578,1.83-1.333
				C165.987,177.597,160.485,155.099,146.628,160.593L146.628,160.593z"/>
		</g>
	</g>
</g>
</svg>
