<?xml version="1.0" encoding="utf-8"?>
<!DOCTYPE svg PUBLIC "-//W3C//DTD SVG 1.1//EN" "http://www.w3.org/Graphics/SVG/1.1/DTD/svg11.dtd">
<svg version="1.1" id="图形" xmlns="http://www.w3.org/2000/svg" xmlns:xlink="http://www.w3.org/1999/xlink" x="0px" y="0px" width="1024px" height="1024px" viewBox="0 0 1024 1024" enable-background="new 0 0 1024 1024" xml:space="preserve">
  <path fill="#555" d="M790.730189-147.787536 233.208413-147.787536c-45.480844 0-82.482573 37.001729-82.482573 82.482573L150.72584 320.959358 79.150688 320.959358c-12.582573 0-23.470551 7.648191-27.738761 19.484773-4.235464 11.747555-0.817622 24.481577 8.705266 32.522718L470.876394 728.77553l0.170892 0.14224c12.548804 10.401908 28.436656 16.130376 44.7369 16.130376s32.187073-5.728468 44.7369-16.130376l0.339738-0.287549 410.591379-355.663372c9.521864-8.040117 12.94073-20.773116 8.704243-32.521694-4.26821-11.836583-15.156188-19.485797-27.737738-19.485797l-79.204923 0L873.213785-65.30394C873.212762-110.785807 836.211033-147.787536 790.730189-147.787536zM109.849874 361.891605l41.218774 0c22.381753 0 40.590464-18.207687 40.590464-40.58944L191.659111-65.30394c0-22.911826 18.639522-41.550325 41.550325-41.550325l557.520753 0c22.911826 0 41.550325 18.639522 41.550325 41.550325L832.280514 321.302165c0 22.381753 18.20871 40.58944 40.58944 40.58944l48.849568 0L534.25077 697.525806c-5.198395 4.250814-11.747555 6.589069-18.466584 6.589069s-13.268188-2.339278-18.466584-6.589069L109.849874 361.891605zM510.689145 379.452563c-11.30344 0-20.466124 9.162684-20.466124 20.466124l0 29.80277c0 11.30344 9.162684 20.466124 20.466124 20.466124s20.466124-9.162684 20.466124-20.466124l0-29.80277C531.155269 388.61627 521.991562 379.452563 510.689145 379.452563zM720.831212 337.755905c-11.30344 0-20.466124 9.162684-20.466124 20.466124 0 10.44284-8.496511 18.938328-18.939351 18.938328L343.007121 377.160357c-10.44284 0-18.938328-8.495488-18.938328-18.938328 0-11.30344-9.162684-20.466124-20.466124-20.466124s-20.466124 9.162684-20.466124 20.466124c0 33.012881 26.857694 59.870576 59.870576 59.870576l338.418616 0c33.013905 0 59.871599-26.857694 59.871599-59.870576C741.297336 346.918589 732.134653 337.755905 720.831212 337.755905zM469.444788-31.266729c-11.30344 0-20.466124 9.162684-20.466124 20.466124s9.162684 20.466124 20.466124 20.466124c23.676236 0 42.936905 19.260669 42.936905 42.936905L512.381693 168.580878c0 29.896914-24.322965 54.218856-54.218856 54.218856l-2.560312 0c-11.30344 0-20.466124 9.162684-20.466124 20.466124s9.162684 20.466124 20.466124 20.466124l2.560312 0c52.465932 0 95.151104-42.685171 95.151104-95.151104l0-115.978455C553.314964 6.35717 515.691065-31.266729 469.444788-31.266729zM710.151989 277.819838 314.279846 277.819838c-11.30344 0-20.466124 9.162684-20.466124 20.466124s9.162684 20.466124 20.466124 20.466124l395.872143 0c11.30344 0 20.466124-9.162684 20.466124-20.466124S721.455429 277.819838 710.151989 277.819838zM313.557392 183.026892c-11.30344 0-20.466124 9.162684-20.466124 20.466124s9.162684 20.466124 20.466124 20.466124c33.095769 0 64.661695 7.664563 93.822852 22.782889 27.843138 14.433734 52.385091 35.471886 70.973448 60.836577 6.680143 9.118682 19.48682 11.091616 28.605501 4.41045 9.116635-6.681166 11.091616-19.487843 4.411473-28.605501-22.295795-30.422893-51.740408-55.660694-85.150332-72.981175C391.673517 192.493497 352.71625 183.026892 313.557392 183.026892zM313.557392 97.706691c-11.30344 0-20.466124 9.162684-20.466124 20.466124s9.162684 20.466124 20.466124 20.466124c36.2189 0 70.76367 8.388041 102.676497 24.932856 30.469965 15.796778 57.32766 38.818097 77.66894 66.575278 6.682189 9.116635 19.48989 11.089569 28.605501 4.41045 9.116635-6.681166 11.091616-19.488867 4.41045-28.605501-24.048719-32.815383-55.809073-60.035328-91.845825-78.718853C397.814378 107.91724 355.794355 97.706691 313.557392 97.706691zM313.557392 13.787396c-11.30344 0-20.466124 9.162684-20.466124 20.466124s9.162684 20.466124 20.466124 20.466124c39.773865 0 77.710896 9.212826 112.757087 27.381627 33.461089 17.347087 62.954821 42.626843 85.291548 73.108065 6.681166 9.115612 19.487843 11.091616 28.605501 4.41045 9.116635-6.681166 11.091616-19.488867 4.41045-28.605501-26.044166-35.538401-60.439534-65.018829-99.468432-85.252663C404.804582 24.843196 359.300202 13.787396 313.557392 13.787396zM592.306001 130.013491c-6.79373 0-13.438057 3.381004-17.330714 9.55154-6.02932 9.56075-3.167133 22.198581 6.393617 28.228925l115.321492 72.728418c9.56075 6.030343 22.198581 3.167133 28.228925-6.393617 6.02932-9.56075 3.167133-22.198581-6.393617-28.228925l-115.321492-72.728418C599.815021 131.033727 596.037998 130.013491 592.306001 130.013491zM717.02963-6.445414c-5.238304 0-10.474562 1.997494-14.47262 5.994528l-190.272531 190.273555c-7.992021 7.992021-7.992021 20.951171 0 28.943193 7.994068 7.990998 20.952194 7.990998 28.944216 0l190.272531-190.273555c7.992021-7.993045 7.992021-20.952194 0-28.944216C727.505215-4.446897 722.266911-6.445414 717.02963-6.445414z" transform="translate(0, 812) scale(1, -1)"/>
</svg>
