<?xml version="1.0" encoding="utf-8"?>
<!DOCTYPE svg PUBLIC "-//W3C//DTD SVG 1.1//EN" "http://www.w3.org/Graphics/SVG/1.1/DTD/svg11.dtd">
<svg version="1.1" id="图形" xmlns="http://www.w3.org/2000/svg" xmlns:xlink="http://www.w3.org/1999/xlink" x="0px" y="0px" width="1024px" height="1024px" viewBox="0 0 1024 1024" enable-background="new 0 0 1024 1024" xml:space="preserve">
  <path fill="#272636" d="M787.693714-212 118.154971-212C52.999314-212 0-159.000686 0-93.846857L0 300c0 97.537829 56.577829 114.095543 90.307657 115.307886 0.6144-0.1152 34.000457-0.557714 59.192686-1.018514l24.2304-0.442514-0.245029-78.112914c-0.3456 0-11.523657-0.464457-25.4464-0.193829-22.730971 0.4224-53.569829 1.000229-56.493714 1.018514C86.314057 336.344686 78.628571 336.075886 78.628571 300l0-393.846857C78.628571-115.5392 96.4224-133.371429 118.154971-133.371429L787.693714-133.371429c21.845943 0 38.037943 50.378971 44.960914 71.839086l112.2688 366.8224C942.500571 324.694857 925.886171 340.228571 905.846857 340.228571L708.922514 340.228571C687.153371 340.228571 669.257143 357.018514 669.257143 378.769371L669.257143 674.153143c0 32.576-25.938286 59.077486-58.514286 59.077486s-58.514286-26.499657-58.514286-59.077486L552.228571 654.742857l-80.457143 0L471.771429 674.153143C471.771429 750.154057 533.829486 812 609.828571 812S747.885714 750.154057 747.885714 674.153143L747.885714 418.857143l157.961143 0C971.000686 418.857143 1024 365.504914 1024 300.351086c0-3.904-0.576-7.983543-1.729829-11.715657l-114.461257-373.624686C895.4624-123.336229 866.923886-212 787.693714-212zM157.2864 335.514514 157.257143 413.845029c276.114286 0 314.514286 200.811886 314.514286 241.040457L552.228571 654.742857C552.228571 576.114286 471.800686 335.514514 157.2864 335.514514zM197.485714 378.628571l78.628571 0 0-550.4-78.628571 0 0 550.4Z" transform="translate(0, 812) scale(1, -1)"/>
</svg>
