<?xml version="1.0" encoding="utf-8"?>
<!DOCTYPE svg PUBLIC "-//W3C//DTD SVG 1.1//EN" "http://www.w3.org/Graphics/SVG/1.1/DTD/svg11.dtd">
<svg version="1.1" id="图形" xmlns="http://www.w3.org/2000/svg" xmlns:xlink="http://www.w3.org/1999/xlink" x="0px" y="0px" width="1024px" height="1024px" viewBox="0 0 1024 1024" enable-background="new 0 0 1024 1024" xml:space="preserve">
  <path fill="#272636" d="M789.355485 387.302345c0 200.289676-162.384881 362.66688-362.68174 362.66688S63.992005 587.592021 63.992005 387.302345s162.384881-362.66688 362.68174-362.66688S789.355485 187.013693 789.355485 387.302345zM426.673745 93.714773c-162.147464 0-293.599601 131.446751-293.599601 293.587572 0 162.140821 131.452137 293.587572 293.599601 293.587572 162.147464 0 293.599601-131.446751 293.599601-293.587572C720.273346 225.161524 588.821209 93.714773 426.673745 93.714773zM954.033689-70.416378 758.62741 124.949148c-6.744888 6.745634-17.675269 6.745634-24.420156 0l-48.845429-48.841382c-6.745911-6.747681-6.745911-17.674545 0-24.422226l195.409348-195.398272c6.745911-6.746658 17.672199-6.746658 24.42118 0l48.842359 48.840358C960.780623-88.122645 960.780623-77.160989 954.033689-70.416378z" transform="translate(0, 812) scale(1, -1)"/>
</svg>
