<?xml version="1.0" encoding="utf-8"?>
<!DOCTYPE svg PUBLIC "-//W3C//DTD SVG 1.1//EN" "http://www.w3.org/Graphics/SVG/1.1/DTD/svg11.dtd">
<svg version="1.1" id="图形" xmlns="http://www.w3.org/2000/svg" xmlns:xlink="http://www.w3.org/1999/xlink" x="0px" y="0px" width="1024px" height="1024px" viewBox="0 0 1024 1024" enable-background="new 0 0 1024 1024" xml:space="preserve">
  <path fill="#555" d="M512 735.667c-200.528 0-363.090-162.56-363.090-363.090 0-81.831 27.071-157.339 72.745-218.057l203.606-270.671c19.792-26.311 51.278-43.327 86.739-43.327 35.461 0 66.946 17.016 86.739 43.327l203.606 270.671c45.674 60.719 72.745 136.227 72.745 218.057-0.001 200.529-162.561 363.090-363.090 363.090zM512 257.479c-63.568 0-115.099 51.532-115.099 115.099s51.532 115.099 115.099 115.099 115.099-51.532 115.099-115.099-51.532-115.099-115.099-115.099z" transform="translate(0, 812) scale(1, -1)"/>
</svg>
