<?xml version="1.0" encoding="utf-8"?>
<!DOCTYPE svg PUBLIC "-//W3C//DTD SVG 1.1//EN" "http://www.w3.org/Graphics/SVG/1.1/DTD/svg11.dtd">
<svg version="1.1" id="图形" xmlns="http://www.w3.org/2000/svg" xmlns:xlink="http://www.w3.org/1999/xlink" x="0px" y="0px" width="1024px" height="1024px" viewBox="0 0 1024 1024" enable-background="new 0 0 1024 1024" xml:space="preserve">
  <path fill="#555" d="M761.6 581.6 832 504.8l-89.6-89.6-19.2-19.2 0-25.6 0-345.6L300.8 24.8 300.8 370.4 300.8 396 281.6 415.2 192 504.8l70.4 70.4 96 0C396.8 536.8 454.4 511.2 512 511.2s115.2 25.6 153.6 70.4L761.6 581.6M787.2 645.6 627.2 645.6C608 600.8 563.2 575.2 512 575.2S416 600.8 396.8 645.6L236.8 645.6 128 536.8C115.2 517.6 115.2 492 128 479.2l108.8-108.8 0-364.8c0-25.6 19.2-44.8 44.8-44.8l454.4 0c25.6 0 44.8 19.2 44.8 44.8L780.8 370.4 896 479.2c12.8 12.8 12.8 38.4 0 57.6L787.2 645.6 787.2 645.6z" transform="translate(0, 812) scale(1, -1)"/>
</svg>
