<?xml version="1.0" encoding="utf-8"?>
<!DOCTYPE svg PUBLIC "-//W3C//DTD SVG 1.1//EN" "http://www.w3.org/Graphics/SVG/1.1/DTD/svg11.dtd">
<svg version="1.1" id="图形" xmlns="http://www.w3.org/2000/svg" xmlns:xlink="http://www.w3.org/1999/xlink" x="0px" y="0px" width="1024px" height="1024px" viewBox="0 0 1024 1024" enable-background="new 0 0 1024 1024" xml:space="preserve">
  <path fill="#272636" d="M201.559 365.485c40.741 0 81.483 0 122.204 0 74.316-164.562 284.321-164.562 358.618 0 40.741 0 81.483 0 122.183 0-14.685-138.547-29.328-277.134-44.015-415.681-21.148-21.81-42.357-43.641-63.525-65.494h-387.885c-21.189 21.851-42.398 43.684-63.547 65.494-14.685 138.547-29.349 277.134-44.035 415.681v0zM318.068 570.147c9.55-78.128 16.923-138.858 26.45-217.027l51.077-45.485-11.599 92.255-9.092 101.098 45.609 6.111 11.639-236.020 45.195-11.599-11.143 229.909 6.503 153.853 46.002 1.161-7.084-133.804-10.397 0.684-2.196-22.141-17.501-175.207 2.983-35.501 40.534 3.81 16.3 180.097 45.878-3.127-19.013-167.585 43.849 23.053 26.43 187.325-11.329 0.746 39.188 116.819 44.055-13.837-82.415-217.773-6.256-48.405 47.908 31.628 66.695 176.058 25.766-9.197-60.191-157.871 48.426-0.58 62.491 162.821 9.673 22.804-69.865 24.979 8.285 21.915 8.782 23.178-131.462 41.322-7.043-20.982-50.228-149.731-24.668 1.697 8.41 159.281 1.305 24.814-24.193-0.58-113.235-2.858-0.29-22.225-1.326-111.537-60.791-8.203-6.607 54.308-3.024 24.834-134.736-28.75 3.563-21.851 30.861-191.012 45.671 1.451-28.812 175.27 44.967 9.611zM311.565 311.323h-69.655l37.904-307.333 61.082-32.767-29.328 340.101z" transform="translate(0, 812) scale(1, -1)"/>
</svg>
