<?xml version="1.0" encoding="utf-8"?>
<!DOCTYPE svg PUBLIC "-//W3C//DTD SVG 1.1//EN" "http://www.w3.org/Graphics/SVG/1.1/DTD/svg11.dtd">
<svg version="1.1" id="图形" xmlns="http://www.w3.org/2000/svg" xmlns:xlink="http://www.w3.org/1999/xlink" x="0px" y="0px" width="1024px" height="1024px" viewBox="0 0 1024 1024" enable-background="new 0 0 1024 1024" xml:space="preserve">
  <path fill="#555" d="M508.107855 714.632415c1.309832 0 2.947122 0.656963 4.916986 1.963725 3.932566 2.619664 9.171893 7.210215 15.72617 13.762445 7.866155 7.209192 15.730263 12.455683 23.592324 15.731286 7.867178 3.275603 18.35095 2.291183 31.458479-2.947122 6.551206-1.970888 11.797697-4.754281 15.730263-8.358365 3.931542-3.605108 7.700379-7.045463 11.30037-10.32209 3.605108-3.276626 7.537673-6.060019 11.797697-8.357342 4.261047-2.292206 9.667174-3.440355 16.219403-3.440355 6.55223 0 12.126178 0.983397 16.714683 2.952238 4.583388 1.963725 9.010211 3.76372 13.269211 5.406127 4.257977 1.635243 8.516977 2.784416 12.779048 3.439332 4.261047 0.655939 9.336646 0 15.237029-1.963725 6.554276-2.62478 10.973936-6.392594 13.269211-11.304464 2.294252-4.919033 2.950192-9.993608 1.966795-15.239076-0.984421-5.240351-3.276626-10.486842-6.882757-15.727193-3.603061-5.244444-8.02886-9.500375-13.269211-12.781094-12.449543-7.862062-21.955034-15.890922-28.508287-24.083511-6.553253-8.190543-13.106506-16.874319-19.658735-26.048259-3.275603-4.588505-6.880711-9.829879-10.812253-15.727193-3.934612-5.901407-7.53972-11.797697-10.8143-17.693987-3.933589-7.210215-8.190543-14.089903-12.775978-20.642133L405.874449 563.251659c-4.589528 7.860015-9.172917 15.397688-13.760398 22.605857-3.934612 6.553253-8.195659 13.106506-12.779048 19.658735-4.588505 6.556323-8.521071 12.453636-11.797697 17.695011-6.55223 9.828856-13.925151 18.514679-22.119787 26.052353-8.18952 7.53665-16.219403 14.253632-24.084535 20.150946-8.515954 5.897314-14.414291 13.925151-17.695011 24.083511-3.275603 10.157337-0.323365 18.838044 8.850575 26.048259 4.587482 3.275603 9.827833 4.588505 15.72617 3.932566 5.901407-0.656963 12.125155-1.963725 18.678408-3.932566 6.55223-1.964748 12.941753-3.928472 19.167548-5.897314 6.228865-1.963725 11.960403-2.292206 17.201777-0.983397 9.178033 1.967818 16.057721 5.409197 20.643156 10.320043 4.588505 4.91801 12.455683 10.979052 23.596418 18.186198 8.515954 5.245468 18.016329 7.045463 28.504194 5.41022 10.484795-1.64036 18.351973-5.080715 23.596418-10.32209 2.618641-3.281743 5.40408-6.065136 8.352225-8.357342 2.949168-2.293229 6.058996-4.424776 9.336646-6.389524C500.568135 718.893462 504.172219 716.59614 508.107855 714.632415L508.107855 714.632415zM853.638449 201.011498c-4.912893 32.435737-13.598716 61.107753-26.048259 86.011956-12.45466 24.90011-27.03268 46.691415-43.74634 65.369823-16.711614 18.675338-32.931017 34.897811-48.66128 48.660256-19.001773 15.725146-35.71134 30.635741-50.130747 44.725644-14.419408 14.09195-26.539446 26.704199-36.367279 37.845956-11.79872 12.449543-21.629623 23.919782-29.495778 34.405601L398.009318 518.030735c-8.518001-11.141758-18.35095-22.939455-29.488615-35.390022-9.178033-11.140735-20.643156-23.427572-34.404578-36.861536-13.762445-13.433964-29.164227-27.687596-46.203298-42.760896-19.658735-17.041118-37.845956-36.370349-54.556547-57.997925-16.71059-21.6286-30.635741-45.38363-41.778522-71.269183-11.141758-25.886577-18.84316-53.575196-23.100114-83.061764-4.259-29.493731-3.439332-60.295248 2.456958-92.40762 5.239328-28.831652 16.053628-57.833173 32.43983-86.99433 16.383132-29.164227 38.496779-55.539944 66.349127-79.129198 27.853371-23.600511 61.766762-42.764989 101.743242-57.509808 39.975457-14.747889 85.850274-22.115694 137.622404-22.115694 50.462299 0 95.517447 6.388501 135.168516 19.166525 39.644929 12.777001 73.884754 29.979802 102.724593 51.607378 28.835745 21.627577 51.935859 47.018873 69.301366 76.1831 17.368576 29.16525 29.001521 60.131519 34.898835 92.894713C857.735767 132.365048 858.555435 168.569622 853.638449 201.011498zM626.56271 43.725242c-4.261047-2.948145-9.66308-4.424776-16.21838-4.424776l-68.811202 0 0-19.658735c0-5.897314-2.460028-11.628852-7.372921-17.201777-4.91801-5.568832-11.307533-8.029884-19.172665-7.373944-7.861038 0-14.419408 1.805112-19.659759 5.409197-5.244444 3.603061-8.192589 9.994632-8.844435 19.165502l0 19.658735-66.847477 0c-6.55223 0-11.961426 1.805112-16.219403 5.41022-4.259 3.603061-6.064113 8.029884-5.40715 13.268188 0 5.898337 2.13257 10.650571 6.388501 14.256702 4.26207 3.603061 9.341762 5.403057 15.238053 5.403057l66.847477 0 0 34.404578-66.847477 0c-6.55223 0-11.797697 1.969864-15.730263 5.901407-3.927449 3.934612-5.89629 8.518001-5.89629 13.763468 0 5.240351 2.13257 10.158361 6.388501 14.741749 4.26207 4.586458 9.341762 6.881734 15.238053 6.881734l66.847477 0 0.979304 20.642133c-11.793604 11.79872-22.605857 22.940478-32.434713 33.425274-8.522094 9.17394-16.388249 17.693987-23.597441 25.556049l-14.741749 13.761422c-3.275603 3.932566-6.224772 9.342786-8.849552 16.222473-2.62171 6.883781-1.307785 13.926174 3.931542 21.13639 5.89629 6.553253 13.107529 8.352225 21.627577 5.405103 8.516977-2.949168 15.398712-6.718005 20.643156-11.30651 2.620687-3.276626 7.209192-8.190543 13.763468-14.740726l20.641109-20.644179 26.54047-26.543539c11.143805 10.484795 21.300119 19.986193 30.474059 28.507264 7.867178 7.210215 15.731286 14.255679 23.597441 21.135366 7.861038 6.880711 13.43294 11.628852 16.711614 14.254655 5.895267 5.240351 12.447497 7.860015 19.657712 7.860015s13.105482-2.948145 17.695011-8.844435c8.515954-9.828856 5.240351-21.298072-9.829879-34.405601-3.930519-3.275603-9.828856-9.010211-17.692964-17.203824-7.867178-8.193613-15.732309-16.21838-23.592324-24.082488-9.178033-9.828856-19.336394-19.986193-30.474059-30.472012l0-18.679431 63.894216 0c9.172917 0 15.888875-2.1295 20.150946-6.388501 4.261047-4.260024 6.388501-9.010211 6.388501-14.254655 0-5.898337-1.964748-10.978029-5.89629-15.233959-3.933589-4.260024-10.484795-6.067182-19.658735-5.409197l-63.899332-0.985444-0.980327-33.420157 62.911842 0c18.35095 0 27.522844-6.881734 27.522844-20.644179C632.6258 51.427668 630.823757 46.673387 626.56271 43.725242z" transform="translate(0, 812) scale(1, -1)"/>
</svg>
