<?xml version="1.0" encoding="utf-8"?>
<!DOCTYPE svg PUBLIC "-//W3C//DTD SVG 1.1//EN" "http://www.w3.org/Graphics/SVG/1.1/DTD/svg11.dtd">
<svg version="1.1" id="图形" xmlns="http://www.w3.org/2000/svg" xmlns:xlink="http://www.w3.org/1999/xlink" x="0px" y="0px" width="1024px" height="1024px" viewBox="0 0 1024 1024" enable-background="new 0 0 1024 1024" xml:space="preserve">
  <path fill="#272636" d="M736 812 288 812c-52.8 0-96-43.2-96-96l0-832c0-52.8 43.2-96 96-96l448 0c52.8 0 96 43.2 96 96L832 716C832 768.8 788.8 812 736 812zM384 764l256 0 0-32L384 732 384 764zM512-148c-35.346 0-64 28.654-64 64s28.654 64 64 64 64-28.654 64-64S547.346-148 512-148zM768 44 256 44 256 684l512 0L768 44z" transform="translate(0, 812) scale(1, -1)"/>
</svg>
