<?xml version="1.0" encoding="utf-8"?>
<!DOCTYPE svg PUBLIC "-//W3C//DTD SVG 1.1//EN" "http://www.w3.org/Graphics/SVG/1.1/DTD/svg11.dtd">
<svg version="1.1" id="图形" xmlns="http://www.w3.org/2000/svg" xmlns:xlink="http://www.w3.org/1999/xlink" x="0px" y="0px" width="1024px" height="1024px" viewBox="0 0 1024 1024" enable-background="new 0 0 1024 1024" xml:space="preserve">
  <path fill="#272636" d="M552.514065 748.280774 750.096516 619.223742 750.096516-150.972903 552.514065-150.972903ZM765.555613 193.140645l0-340.100129L1007.483871-146.959484 1007.483871 115.861677 765.555613 193.140645zM867.707871-73.000258l-73.94271 21.537032 0 63.78529 73.94271-26.83871L867.707871-73.000258zM867.707871 38.58271l-73.94271 21.537032 0 63.768774 73.94271-26.855226L867.707871 38.58271zM960.445935-99.855484l-73.975742 21.520516 0 63.818323 73.975742-26.888258L960.445935-99.855484zM960.445935 11.694452l-73.94271 21.520516 0 63.818323 73.959226-26.855226L960.445935 11.694452 960.445935 11.694452zM285.712516 595.044129l0-510.662194-34.931613-22.82529L250.780903 232.11871l-22.164645-9.166452L228.616258 393.084903l-161.346065-71.234065 0-165.722839-15.442581-6.408258 0-300.692645 478.092387 0L529.92 750.956387 285.712516 595.044129zM82.068645 289.396645l54.453677 25.203613 0-65.502968-54.453677-24.212645L82.068645 289.396645zM86.098581 183.214452l54.453677 25.220129 0-65.536-54.453677-24.179613L86.098581 183.214452zM142.187355-52.140387l-54.420645-24.212645L87.76671-11.824516l54.420645 25.187097L142.187355-52.140387zM142.187355 47.699613l-54.420645-24.245677 0 64.528516 54.420645 25.187097L142.187355 47.699613zM149.933419 320.992l54.453677 25.203613 0-65.536-54.453677-24.196129L149.933419 320.992zM153.979871 214.826323l54.437161 25.203613 0-65.536-54.437161-24.229161L153.979871 214.826323zM214.808774-20.908387l-54.453677-24.245677 0 64.545032 54.453677 25.187097L214.808774-20.908387zM214.808774 78.882065l-54.453677-24.196129 0 64.512 54.453677 25.187097L214.808774 78.882065zM389.186065 67.535484l-75.297032-47.120516 0 69.879742 75.297032 48.706065L389.186065 67.535484zM389.186065 185.625806l-75.297032-47.104 0 69.896258 75.297032 48.706065L389.186065 185.625806zM389.186065 303.765677l-75.297032-47.137032 0 69.92929 75.297032 48.739097L389.186065 303.765677zM389.186065 421.872516l-75.297032-47.104 0 69.896258 75.297032 48.739097L389.186065 421.872516zM389.186065 539.995871l-75.297032-47.120516 0 69.912774 75.297032 48.722581L389.186065 539.995871zM500.752516 137.332645l-87.370323-54.651871 0 71.993806 87.370323 56.567742L500.752516 137.332645zM500.752516 255.472516l-87.370323-54.701419 0 72.043355 87.370323 56.567742L500.752516 255.472516zM500.752516 373.579355l-87.370323-54.684903 0 72.026839 87.370323 56.584258L500.752516 373.579355zM500.752516 491.70271l-87.370323-54.684903 0 72.026839 87.370323 56.584258L500.752516 491.70271zM500.752516 609.842581l-87.370323-54.684903 0 72.043355 87.370323 56.567742L500.752516 609.842581z" transform="translate(0, 812) scale(1, -1)"/>
</svg>
