<?xml version="1.0" encoding="utf-8"?>
<!DOCTYPE svg PUBLIC "-//W3C//DTD SVG 1.1//EN" "http://www.w3.org/Graphics/SVG/1.1/DTD/svg11.dtd">
<svg version="1.1" id="图形" xmlns="http://www.w3.org/2000/svg" xmlns:xlink="http://www.w3.org/1999/xlink" x="0px" y="0px" width="1024px" height="1024px" viewBox="0 0 1024 1024" enable-background="new 0 0 1024 1024" xml:space="preserve">
  <path fill="#555555" d="M1012 300l-133.792 94.2L945 540l-164.92 17.36L762 715.68l-151.872-64.16L512 780l-98.128-128.44L262 715.68l-18.08-158.32L79 540l66.816-145.8L12 300l133.784-94.2L79 60l164.92-17.36L262-115.68l151.872 64.16L512-180l98.128 128.44L762-115.68l18.08 158.32L945 60l-66.824 145.8L1012 300zM363.356 236l-50.041 0-79.919 128.264-0.136-128.21-40.927 0L192.333 428l54.599 0 73.592-128.682L320.524 428l42.832 0L363.356 236zM576.133 236 411.111 236 411.111 428l165.421 0 0-35.782L457.918 392.218l0-40.09 112.68 0 0-35.543-112.68 0 0-45.803 118.215 0L576.133 236zM792.441 236l-40.594 0L731.55 364.588 711.254 236 670.66 236l-43.771 192 40.956 0 23.112-128.682c4.044 21.172 17.843 128.651 17.843 128.651l40.956 0 22.388-128.651c2.488 21.438 18.567 128.651 18.567 128.651l40.956 0L792.441 236z" transform="translate(0, 812) scale(1, -1)"/>
</svg>
