<?xml version="1.0" encoding="utf-8"?>
<!DOCTYPE svg PUBLIC "-//W3C//DTD SVG 1.1//EN" "http://www.w3.org/Graphics/SVG/1.1/DTD/svg11.dtd">
<svg version="1.1" id="图形" xmlns="http://www.w3.org/2000/svg" xmlns:xlink="http://www.w3.org/1999/xlink" x="0px" y="0px" width="1024px" height="1024px" viewBox="0 0 1024 1024" enable-background="new 0 0 1024 1024" xml:space="preserve">
  <path fill="#555" d="M772.7616 300.37504c-11.6608 0-21.1136 9.45152-21.1136 21.1136L751.648 614.3488c0 55.72608-45.3376 101.05856-101.06752 101.05856L377.73184 715.40736c-55.72096 0-101.0496-45.33248-101.0496-101.05856l0-292.86016c0-11.66208-9.4528-21.1136-21.11616-21.1136s-21.1136 9.45152-21.1136 21.1136L234.45248 614.3488c0 79.008 64.27392 143.28576 143.27936 143.28576l272.84864 0c79.01312 0 143.29728-64.27904 143.29728-143.28576l0-292.86016C793.87776 309.82656 784.42368 300.37504 772.7616 300.37504zM793.87776-63.45344 234.45248-63.45344 234.45248 220.43904l559.42528 0L793.87776-63.45344zM276.68096-21.22624l474.96576 0 0 199.4368L276.68096 178.21056 276.68096-21.22624zM276.68096-63.45344 123.25632-63.45344 123.25632 267.26912c-62.94528 10.14144-111.17824 64.85248-111.17824 130.6112 0 72.9536 59.34592 132.30976 132.29312 132.30976 72.95488 0 132.31104-59.35616 132.31104-132.30976L276.68224-63.45344zM165.4848-21.22624l68.96768 0L234.45248 397.88032c0 49.67168-40.41088 90.08128-90.08128 90.08128-49.664 0-90.06464-40.4096-90.06464-90.08128 0-49.664 40.40064-90.06592 90.06464-90.06592l21.11488 0L165.48608-21.22624zM905.05216-63.45344 751.648-63.45344 751.648 397.88032c0 72.9536 59.34464 132.30976 132.29312 132.30976 72.94208 0 132.29312-59.35616 132.29312-132.30976 0-65.75872-48.23296-120.46976-111.17952-130.6112L905.05472-63.45344zM793.87776-21.22624l68.94848 0L862.82624 307.8144l21.1136 0c49.6704 0 90.06592 40.40192 90.06592 90.06592 0 49.67168-40.3968 90.08128-90.06592 90.08128-49.66272 0-90.06208-40.4096-90.06208-90.08128L793.87776-21.22624zM255.56608-124.43904c-11.66336 0-21.1136 9.4528-21.1136 21.11232l0 44.11136c0 11.66208 9.45024 21.11488 21.1136 21.11488s21.11616-9.4528 21.11616-21.11488l0-44.11136C276.68096-114.98624 267.22816-124.43904 255.56608-124.43904zM772.7616-124.43904c-11.6608 0-21.1136 9.4528-21.1136 21.11232l0 44.11136c0 11.66208 9.4528 21.11488 21.1136 21.11488 11.66208 0 21.11616-9.4528 21.11616-21.11488l0-44.11136C793.87776-114.98624 784.42368-124.43904 772.7616-124.43904z" transform="translate(0, 812) scale(1, -1)"/>
</svg>
