<?xml version="1.0" encoding="utf-8"?>
<!DOCTYPE svg PUBLIC "-//W3C//DTD SVG 1.1//EN" "http://www.w3.org/Graphics/SVG/1.1/DTD/svg11.dtd">
<svg version="1.1" id="图形" xmlns="http://www.w3.org/2000/svg" xmlns:xlink="http://www.w3.org/1999/xlink" x="0px" y="0px" width="1024px" height="1024px" viewBox="0 0 1024 1024" enable-background="new 0 0 1024 1024" xml:space="preserve">
  <path fill="#272636" d="M167.68 151.776c0-27.14496 22.00448-49.14944 49.15456-49.14944 13.2544 0 25.26464 5.25952 34.10944 13.78048l0.01536-0.01536 260.89984 260.89472 257.52576-257.51936c9.00992-10.4896 22.36544-17.14048 37.27488-17.14048 27.14496 0 49.14944 22.00448 49.14944 49.14944 0 13.1904-5.2096 25.16864-13.68064 34.00064l0.13184 0.12928L547.35104 480.81536l-0.02048-0.01536c-8.94464 9.27488-21.47456 15.04-35.37024 15.04l-0.1152 0-0.1152 0c-13.90976 0-26.41024-5.76512-35.37536-15.04l-0.01536 0.01536L181.43104 185.90464l0.01536-0.01408C172.92544 177.06112 167.68 165.03168 167.68 151.776L167.68 151.776zM167.68 151.776" transform="translate(0, 812) scale(1, -1)"/>
</svg>
