<?xml version="1.0" encoding="utf-8"?>
<!DOCTYPE svg PUBLIC "-//W3C//DTD SVG 1.1//EN" "http://www.w3.org/Graphics/SVG/1.1/DTD/svg11.dtd">
<svg version="1.1" id="图形" xmlns="http://www.w3.org/2000/svg" xmlns:xlink="http://www.w3.org/1999/xlink" x="0px" y="0px" width="1024px" height="1024px" viewBox="0 0 1024 1024" enable-background="new 0 0 1024 1024" xml:space="preserve">
  <path fill="#555" d="M922.6496 191.1805c-9.6573 29.2157-21.2029 75.2783-47.7215 108.1897-39.7373 49.2728-58.8093 55.2335-72.8105 96.0225 0 0-35.285 163.4775-256.4659 163.4775-188.4846 0-267.2568-175.2125-267.2568-175.2125s-172.2726-30.3483-172.2726-144.8909c0-114.516 64.6093-121.3143 64.6093-121.3143l4.6602-0.001c12.3279-32.1812 43.4954-55.0308 80.0195-55.0308 36.4933 0 67.6495 22.8383 79.9826 55.0072l371.5758-0.0563c12.3484-32.1393 43.4944-54.9509 79.9867-54.9509 36.4626 0 67.5983 22.8014 79.9519 54.9274l22.3427-0.0031C889.2529 117.346 936.9477 147.8694 922.6496 191.1805zM520.7808 366.5559H330.29836800000004c0 0 25.601 48.7731 77.2884 85.7313 53.036 37.9023 113.194 52.821 113.194 52.821V366.555904zM576.7834 365.9354V504.135424c0 0 70.2474-6.0692 119.9647-42.623 50.1217-36.8497 71.1096-95.5771 71.1096-95.5771H576.78336z" transform="translate(0, 812) scale(1, -1)"/>
</svg>
