<?xml version="1.0" encoding="utf-8"?>
<!DOCTYPE svg PUBLIC "-//W3C//DTD SVG 1.1//EN" "http://www.w3.org/Graphics/SVG/1.1/DTD/svg11.dtd">
<svg version="1.1" id="图形" xmlns="http://www.w3.org/2000/svg" xmlns:xlink="http://www.w3.org/1999/xlink" x="0px" y="0px" width="1024px" height="1024px" viewBox="0 0 1024 1024" enable-background="new 0 0 1024 1024" xml:space="preserve">
  <path fill="#272636" d="M345.88962 241.374788l332.220759 0c-47.787287 28.191062-90.130363 67.276243-127.025133 117.250424l-58.629661 0C459.886508 313.028735 411.029822 273.942531 345.88962 241.374788zM942.336819 747.725114 81.661134 747.725114c-9.612309 0-17.405105-7.792477-17.405105-17.404392l0-860.641445c0-9.611915 7.792796-17.404392 17.405105-17.404392l860.675686 0c9.612309 0 17.405105 7.792477 17.405105 17.404392L959.741924 730.320723C959.741924 739.932638 951.949128 747.725114 942.336819 747.725114zM883.306006 358.624189 668.338428 358.624189c47.737143-58.625212 119.391979-103.155405 214.967578-133.535319l0-65.137533c-26.05956 6.511297-60.817579 17.352203-104.22596 32.567743-13.029268 4.325515-22.799173 7.582699-29.31483 9.771551l0-156.331511c2.138798-73.791633-34.758019-109.615537-110.739571-107.48092L541.313295-61.5218l0 68.397786 55.36825 0c34.709922-2.13871 50.993437 11.908214 48.856686 42.341341L645.538232 172.979048 459.886508 172.979048c10.840327-136.791479-87.942445-220.352617-296.393341-250.783697l0 61.880349c138.934858 30.380938 203.006685 92.26538 192.167381 185.648211l0 3.25616-91.197715 0L264.462833 202.290631c-17.404082-8.702196-46.717889-19.541055-87.940398-32.567743-15.217187-6.515391-27.177056-10.893094-35.828441-13.028735L140.693994 225.089893c106.364758 39.083134 182.39543 83.561138 227.994799 133.535319L140.692971 358.625212l0 65.139579 273.595192 0c8.651385 19.541055 16.283515 42.339294 22.79815 68.394716L173.263071 492.159508l0 65.139579 91.198738 0c-8.702552 19.542078-18.474504 50.991348-29.313807 94.451162l97.712349 0c6.515658-34.757618 15.166019-66.258053 26.05649-94.451162l91.197715 0 0 55.367005 0 65.139579 110.740594 0 0-55.367005c0-23.919782-1.119543-45.597501-3.256294-65.139579l100.96762 0c13.027222 28.193109 21.680653 59.693544 26.057513 94.451162l94.456055 0c-6.515658-39.083134-16.287609-70.584592-29.31483-94.451162l100.969666 0 0-65.139579L551.085247 492.159508c-6.515658-26.055422-14.148811-48.853661-22.80122-68.394716L883.306006 423.764791 883.306006 358.624189z" transform="translate(0, 812) scale(1, -1)"/>
</svg>
