<?xml version="1.0" encoding="utf-8"?>
<!DOCTYPE svg PUBLIC "-//W3C//DTD SVG 1.1//EN" "http://www.w3.org/Graphics/SVG/1.1/DTD/svg11.dtd">
<svg version="1.1" id="图形" xmlns="http://www.w3.org/2000/svg" xmlns:xlink="http://www.w3.org/1999/xlink" x="0px" y="0px" width="1024px" height="1024px" viewBox="0 0 1024 1024" enable-background="new 0 0 1024 1024" xml:space="preserve">
  <path fill="#555" d="M837.562 421.81c-1.772 0.148-3.247 1.181-3.986 2.953-42.365 112.334-145.252 194.112-265.261 214.188-0.294 0-0.443 0.148-0.738 0.294-1.918 0.738-3.838 1.181-6.348 1.329-1.475 0.148-3.1 0.148-4.428 0.148-0.148 0-0.294 0-0.294 0-14.91 1.918-30.112 3.1-45.316 3.1-143.775 0-273.527-89.158-322.387-218.911-0.591-1.772-2.214-2.804-3.838-2.953-60.078-2.214-108.202-51.37-108.202-111.301 0-60.078 48.122-109.086 108.202-111.301 1.772-0.148 3.247-1.181 3.986-2.953 37.199-99.049 121.485-174.183 223.191-204.444 1.034-0.294 2.067-1.034 2.657-2.214 18.599-33.951 54.765-57.126 96.54-57.126s77.939 23.175 96.54 57.126c0.591 1.034 1.475 1.772 2.657 2.214 101.706 30.26 185.993 105.248 223.191 204.295 0.591 1.772 2.214 2.804 3.986 2.953 60.078 2.214 108.202 51.37 108.202 111.301-0.148 60.078-48.418 109.086-108.349 111.301zM577.024 26.354c-5.314-22.733-22.141-40.741-44.135-48.122-6.939-2.362-14.023-3.838-21.699-3.838s-14.762 1.623-21.699 3.838c-21.995 7.379-38.97 25.537-44.135 48.122-1.034 4.871-1.772 9.889-1.772 15.056 0 12.105 3.543 23.47 9.3 33.213 9.152 15.794 24.505 27.603 42.956 31.884 5.019 1.181 10.185 1.918 15.499 1.918 5.314 0 10.481-0.738 15.499-1.918 18.452-4.281 33.657-16.091 42.956-31.884 5.757-9.889 9.3-21.109 9.3-33.213-0.294-5.167-0.886-10.185-2.067-15.056zM443.285 135.294c0 11.809 27.013 29.671 67.755 29.671s67.755-17.861 67.755-29.671c0 0 0 0 0-0.148 0-3.394-3.986-5.314-6.939-3.394-17.419 11.514-38.38 18.452-60.816 18.452-22.438 0-43.398-6.79-60.816-18.452-2.804-1.918-6.79 0.148-6.939 3.543v0zM833.429 240.837c-3.1 0-6.348 0.294-10.481 0.886l-14.17 2.067c-2.214 0.294-4.281-1.034-4.871-3.1l-4.133-13.433c-26.866-87.091-94.474-155.289-178.761-187.616 0 0.591 0.148 1.181 0.148 1.918 0 19.485-5.314 37.789-14.467 53.584-1.034 1.623-0.738 3.691 0.443 5.167 8.858 10.333 14.023 22.289 14.023 35.133 0 40.003-48.27 71.297-109.824 71.297s-109.824-31.294-109.824-71.297c0-12.842 5.167-24.799 14.023-35.133 1.181-1.475 1.475-3.394 0.443-5.167-9.152-15.942-14.467-34.098-14.467-53.584 0-0.591 0.148-1.181 0.148-1.918-84.288 32.327-152.043 100.525-178.761 187.616l-4.428 13.581c-0.591 2.067-2.804 3.394-4.871 3.1l-14.17-2.067c-4.133-0.591-7.379-0.886-10.481-0.886-38.823 0-70.412 31.294-70.412 69.821s31.589 69.821 70.412 69.821c3.1 0 6.348-0.294 10.481-0.886l14.023-2.067c2.214-0.294 4.281 1.034 4.871 3.1l4.133 13.433c24.505 79.712 83.402 143.629 157.65 178.761 3.394 1.623 7.085-1.623 6.199-5.167-10.185-36.608 12.99-78.236 49.746-95.358 49.746-23.175 130.195-26.275 164.146 24.208 15.35 22.733 1.772 51.37-16.679 67.017-25.833 21.699-63.621 24.799-94.324 12.694-24.799-9.889-14.023-50.041 11.218-40.151 18.303 7.085 34.985 7.823 52.55-1.772 24.062-13.138 1.918-28.047-14.91-32.917-31.441-9.005-77.644-1.772-102.148 20.076-30.998 27.603 8.858 58.75 33.657 67.312 26.719 9.152 55.946 11.218 84.14 10.333 0.148 0 0.294 0 0.443 0 114.252-16.237 212.121-95.802 245.629-204.887l4.133-13.433c0.591-2.067 2.657-3.394 4.871-3.1l14.023 2.067c4.133 0.591 7.379 0.886 10.481 0.886 38.823 0 70.412-31.294 70.412-69.821 0-38.823-31.441-70.116-70.265-70.116zM322.981 371.771c0-15.408 12.491-27.9 27.9-27.9s27.9 12.491 27.9 27.9c0 15.408-12.491 27.9-27.9 27.9-15.408 0-27.9-12.491-27.9-27.9zM637.25 371.771c0-15.408 12.491-27.9 27.9-27.9s27.9 12.491 27.9 27.9c0 15.408-12.491 27.9-27.9 27.9-15.408 0-27.9-12.491-27.9-27.9z" transform="translate(0, 812) scale(1, -1)"/>
</svg>
