<?xml version="1.0" encoding="utf-8"?>
<!DOCTYPE svg PUBLIC "-//W3C//DTD SVG 1.1//EN" "http://www.w3.org/Graphics/SVG/1.1/DTD/svg11.dtd">
<svg version="1.1" id="图形" xmlns="http://www.w3.org/2000/svg" xmlns:xlink="http://www.w3.org/1999/xlink" x="0px" y="0px" width="1024px" height="1024px" viewBox="0 0 1024 1024" enable-background="new 0 0 1024 1024" xml:space="preserve">
  <path fill="#555" d="M480 748c-265.088 0-480-214.912-480-480s214.912-480 480-480c265.088 0 480 214.912 480 480s-214.912 480-480 480zM480-116c-212.064 0-384 171.936-384 384s171.936 384 384 384c212.064 0 384-171.936 384-384s-171.936-384-384-384zM512 300l0 128 128 0 0 64-128 0 0 64-64 0 0-64-128 0 0-256 128 0 0-128-128 0 0-64 128 0 0-64 64 0 0 64 128 0 0 256-128 0zM448 300l-64 0 0 128 64 0 0-128zM576 108l-64 0 0 128 64 0 0-128z" transform="translate(0, 812) scale(1, -1)"/>
</svg>
