<?xml version="1.0" encoding="utf-8"?>
<!DOCTYPE svg PUBLIC "-//W3C//DTD SVG 1.1//EN" "http://www.w3.org/Graphics/SVG/1.1/DTD/svg11.dtd">
<svg version="1.1" id="图形" xmlns="http://www.w3.org/2000/svg" xmlns:xlink="http://www.w3.org/1999/xlink" x="0px" y="0px" width="1024px" height="1024px" viewBox="0 0 1024 1024" enable-background="new 0 0 1024 1024" xml:space="preserve">
  <path fill="#272636" d="M865.336374 432.969431M875.407754 580.520975l-36.942377 0c13.719466 21.887496 25.957185 50.304709 23.174815 79.871095-1.807159 19.48068-11.094686 47.38317-45.029566 69.65236-28.42233 18.634406-64.925708 23.199375-105.423051 13.005198-69.186755-17.350157-148.699694-77.249385-199.524243-146.788158-50.824549 69.543889-130.337487 129.436978-199.524243 146.788158-40.497343 10.194176-77.05905 5.629207-105.418958-13.005198-33.939997-22.269189-43.233664-50.166563-45.034682-69.65236-2.787486-29.566386 9.455349-57.983599 23.169699-79.865979l-36.942377 0c-46.288233 0-83.940784-37.658691-83.940784-83.916225l0-111.924115c0-38.691207 26.449395-71.044056 62.190411-80.68974-3.936659-9.674337-6.176676-20.168342-6.176676-31.204699l0-335.766207c0-46.292326 37.656645-83.945901 83.945901-83.945901L511.391133-146.920796c0.109494 0 0.162706-0.052189 0.272199-0.052189s0.162706 0.052189 0.272199 0.052189l307.567981 0c46.287209 0 83.940784 37.653575 83.940784 83.945901L903.444297 272.791311c0 11.06501-2.240017 21.557992-6.176676 31.228235 35.631522 9.702989 62.086034 42.00365 62.086034 80.666204L959.353654 496.609867C959.352631 542.868423 921.699056 580.520975 875.407754 580.520975L875.407754 580.520975zM724.740242 688.757095c25.304316 6.390547 45.849234 4.536316 61.155848-5.495154 16.555048-10.874675 19.342534-21.174252 20.001543-27.979238 2.677992-27.597545-27.435862-63.806211-38.530548-74.761728L570.302871 580.520975C613.474113 631.974857 674.515351 676.160195 724.740242 688.757095L724.740242 688.757095zM217.428008 655.282702c0.657986 6.804986 3.445472 17.104563 20.001543 27.979238 15.249309 10.030447 35.742039 11.889795 61.156872 5.495154 50.223868-12.571317 111.103424-56.81089 154.274666-108.235097L255.957533 580.521998C244.862847 591.481607 214.750015 627.686181 217.428008 655.282702L217.428008 655.282702zM119.934556 496.609867c0 15.410991 12.567223 27.949562 27.979238 27.949562l335.765183 0 0-167.82938-279.751449 0-56.013735 0c-15.412015 0-27.979238 12.543687-27.979238 27.954679L119.934556 496.609867 119.934556 496.609867zM175.949314-62.974895 175.949314 272.791311c0 15.439644 12.567223 27.978215 27.979238 27.978215l279.751449 0 0-391.727753-279.751449 0C188.520631-90.95925 175.949314-78.415562 175.949314-62.974895L175.949314-62.974895zM847.485821-62.974895c0-15.439644-12.570293-27.984355-27.982308-27.984355L539.640524-90.95925 539.640524 300.769526l279.861966 0c15.412015 0 27.982308-12.542664 27.982308-27.978215L847.484797-62.974895 847.485821-62.974895zM903.391085 384.685751c0-15.410991-12.567223-27.954679-27.984355-27.954679l-55.904241 0L539.640524 356.731072 539.640524 524.559429l335.766207 0c15.412015 0 27.984355-12.538571 27.984355-27.949562L903.391085 384.685751 903.391085 384.685751zM903.391085 384.685751" transform="translate(0, 812) scale(1, -1)"/>
</svg>
