<?xml version="1.0" encoding="utf-8"?>
<!DOCTYPE svg PUBLIC "-//W3C//DTD SVG 1.1//EN" "http://www.w3.org/Graphics/SVG/1.1/DTD/svg11.dtd">
<svg version="1.1" id="图形" xmlns="http://www.w3.org/2000/svg" xmlns:xlink="http://www.w3.org/1999/xlink" x="0px" y="0px" width="1024px" height="1024px" viewBox="0 0 1024 1024" enable-background="new 0 0 1024 1024" xml:space="preserve">
  <path fill="#272636" d="M844.8-148 172.8-148c-64 0-108.8 51.2-108.8 108.8L64 632.8C64 690.4 115.2 748 179.2 748l448 0 0-57.6-448 0c-32 0-57.6-32-57.6-57.6l0-665.6c0-32 25.6-57.6 57.6-57.6l665.6 0c32 0 64 25.6 64 57.6l0 448 57.6 0 0-448C966.4-96.8 902.4-148 844.8-148zM908.8 613.6l-96 96c-19.2 19.2-57.6 19.2-76.8 0L300.8 274.4c-6.4-12.8-134.4-275.2-134.4-275.2-12.8-25.6 12.8-51.2 38.4-38.4 0 0 268.8 128 275.2 134.4l428.8 441.6C928 556 928 594.4 908.8 613.6zM236.8 12c-12.8-6.4-19.2 6.4-12.8 19.2l89.6 153.6L390.4 108 236.8 12zM441.6 133.6C403.2 172 345.6 229.6 339.2 236l313.6 313.6 96-96L441.6 133.6zM851.2 556l-64-57.6-96 96 64 64c12.8 12.8 25.6 6.4 38.4-6.4l57.6-57.6C864 575.2 864 568.8 851.2 556z" transform="translate(0, 812) scale(1, -1)"/>
</svg>
