<?xml version="1.0" encoding="utf-8"?>
<!DOCTYPE svg PUBLIC "-//W3C//DTD SVG 1.1//EN" "http://www.w3.org/Graphics/SVG/1.1/DTD/svg11.dtd">
<svg version="1.1" id="图形" xmlns="http://www.w3.org/2000/svg" xmlns:xlink="http://www.w3.org/1999/xlink" x="0px" y="0px" width="1024px" height="1024px" viewBox="0 0 1024 1024" enable-background="new 0 0 1024 1024" xml:space="preserve">
  <path fill="#555" d="M717.09461 749.909873c-57.360406 0-103.875812-46.514383-103.875812-103.84716l0-726.929094c0 0 2.164293-69.230758 69.230758-69.230758 67.097164 0 69.260433 69.230758 69.260433 69.230758L751.709989 265.290477l138.433886 2.163269c0 0 0 131.971707 0 231.458559C890.143874 598.465672 774.427386 749.909873 717.09461 749.909873zM474.756259 472.983773l-69.231781 0L405.524478 749.909873 267.06194 749.909873l0-276.9261-69.230758 0L197.831182 749.909873l-69.231781 0 0-315.868017c0 0 62.194504-59.589167 138.462538-86.544075l0-428.363138c0-38.269605 30.994921-69.230758 69.260433-69.230758 38.20309 0 69.202105 30.961152 69.202105 69.230758l0 429.481611c76.253708 29.294187 138.462538 94.080725 138.462538 94.080725L543.987017 749.909873 474.756259 749.909873 474.756259 472.983773z" transform="translate(0, 812) scale(1, -1)"/>
</svg>
