<?xml version="1.0" encoding="utf-8"?>
<!DOCTYPE svg PUBLIC "-//W3C//DTD SVG 1.1//EN" "http://www.w3.org/Graphics/SVG/1.1/DTD/svg11.dtd">
<svg version="1.1" id="图形" xmlns="http://www.w3.org/2000/svg" xmlns:xlink="http://www.w3.org/1999/xlink" x="0px" y="0px" width="1024px" height="1024px" viewBox="0 0 1024 1024" enable-background="new 0 0 1024 1024" xml:space="preserve">
  <path fill="#555" d="M719.124849-145.385836 303.01171-145.385836c-61.285808 0-110.966301 50.096978-110.966301 111.923092L192.045409 638.086042c0 61.826114 49.680493 111.925139 110.966301 111.925139l416.113139 0c61.286832 0 110.967324-50.099025 110.967324-111.925139l0-671.548786C830.092174-95.288858 780.411681-145.385836 719.124849-145.385836zM774.600325 638.086042c0 30.895661-24.839735 55.962569-55.475476 55.962569L303.01171 694.048611c-30.633694 0-55.482639-25.066909-55.482639-55.962569l0-27.981285 527.071254 0L774.600325 638.086042zM774.600325 554.142188 247.529071 554.142188l0-446.828698 527.071254 0L774.600325 554.142188zM774.600325 51.352967 247.529071 51.352967l0-84.815711c0-30.912034 24.848944-55.961546 55.482639-55.961546l416.113139 0c30.635741 0 55.475476 25.049512 55.475476 55.961546L774.600325 51.352967zM511.07135-61.444029c-22.973224 0-41.60149 18.790972-41.60149 41.971927 0 23.183002 18.628266 41.974997 41.60149 41.974997 22.971178 0 41.597397-18.790972 41.597397-41.974997C552.668747-42.653057 534.042527-61.444029 511.07135-61.444029z" transform="translate(0, 812) scale(1, -1)"/>
</svg>
