<?xml version="1.0" encoding="utf-8"?>
<!DOCTYPE svg PUBLIC "-//W3C//DTD SVG 1.1//EN" "http://www.w3.org/Graphics/SVG/1.1/DTD/svg11.dtd">
<svg version="1.1" id="图形" xmlns="http://www.w3.org/2000/svg" xmlns:xlink="http://www.w3.org/1999/xlink" x="0px" y="0px" width="1024px" height="1024px" viewBox="0 0 1024 1024" enable-background="new 0 0 1024 1024" xml:space="preserve">
  <path fill="#272636" d="M499.648 342.624C486.336 326.816 470.272 311.712 451.392 297.248l161.536 0C598.656 310.688 585.344 325.856 573.056 342.624L499.648 342.624zM813.824 748 210.176 748C163.648 748 125.824 710.112 125.824 663.328l0-801.024 131.776 79.04 119.296-77.056 128 81.216L644.608-148l107.84 94.528 145.728-89.344L898.176 663.328C898.176 710.112 860.416 748 813.824 748zM742.528 220.512c-19.648 6.4-37.952 14.144-55.04 23.104-2.496-22.208-4.736-42.112-6.784-59.904-7.36-49.216-40.064-73.792-98.112-73.792-30.464 0-58.048 0.256-82.88 0.96-2.496 13.504-7.36 33.472-14.72 59.904l82.368-3.904c26.944 0 42.176 10.112 45.696 30.4 1.344 10.304 3.136 25.28 5.184 44.928l-139.52 0c-10.496-35.712-26.432-63.552-47.744-83.52-29.76-25.408-73.088-46.4-130.048-62.72-12.608 19.968-25.728 39.232-39.36 57.92 54.208 10.88 93.76 25.664 118.592 44.352 14.016 11.648 24.32 26.24 30.912 43.968L360.064 242.208C345.024 234.72 329.152 227.68 312.32 220.96 298.304 240.544 283.648 259.04 268.224 276.448c55.232 19.968 99.328 41.984 132.16 66.176L264.064 342.624l0 56.96 191.488 0c4.544 8 9.6 19.968 15.168 35.712L286.656 435.296l0 55.04 80.256 0c-16.448 17.344-33.216 34.432-50.368 51.2l46.72 34.752c22.336-19.328 44.864-40.256 67.648-62.72L399.936 490.336l79.168 0c2.432 23.488 4.544 52.48 6.336 86.912l72.384-1.92C555.392 542.752 552.96 514.464 550.528 490.336l69.76 0L594.56 508.192c22.72 21.888 43.2 44.864 61.376 69.056l57.216-33.344c-16.448-19.328-32.512-37.184-48.256-53.568l81.792 0 0-55.04L543.104 435.296C540.352 421.408 537.28 409.504 533.76 399.584l239.68 0 0-56.96-125.376 0c35.712-30.272 79.552-50.88 131.712-61.824C768.512 265.632 756.096 245.536 742.528 220.512z" transform="translate(0, 812) scale(1, -1)"/>
</svg>
