<?xml version="1.0" encoding="utf-8"?>
<!DOCTYPE svg PUBLIC "-//W3C//DTD SVG 1.1//EN" "http://www.w3.org/Graphics/SVG/1.1/DTD/svg11.dtd">
<svg version="1.1" id="图形" xmlns="http://www.w3.org/2000/svg" xmlns:xlink="http://www.w3.org/1999/xlink" x="0px" y="0px" width="1024px" height="1024px" viewBox="0 0 1024 1024" enable-background="new 0 0 1024 1024" xml:space="preserve">
  <path fill="#272636" d="M988.604862 298.25731c-0.019443-0.408299-0.055259-0.799202-0.082888-1.187035-0.020466-0.203638-0.036839-0.399089-0.057305-0.600681-0.01842-0.292666-0.074701-0.585331-0.11154-0.864694-0.035816-0.337691-0.072655-0.669242-0.128937-1.011027-0.008186-0.039909-0.01842-0.085958-0.01842-0.125867-1.169639-7.523347-4.628414-14.557554-9.924024-19.986193-9.961886-12.090363-20.850887-23.422456-31.797194-34.556027-59.175751-60.083423-127.087467-113.668853-201.438848-152.560628-47.52541-24.837688-98.278327-44.873-150.934594-54.514591-57.896618-10.592242-115.859751-10.061147-173.454494 2.467191-99.653651 21.677719-189.927677 75.498508-268.873704 139.854235-36.654828 29.879518-72.697719 62.562894-102.996792 99.30982-13.258978 16.077164-13.258978 35.118845 0 51.196009 9.956769 12.076036 20.850887 23.424502 31.79924 34.543747 59.171658 60.090587 127.080304 113.687272 201.439872 152.562675 47.505967 24.836665 98.266048 44.88221 150.928455 54.517661 57.898665 10.592242 115.849518 10.06217 173.448354-2.455935 99.652628-21.673625 189.926654-75.511811 268.86961-139.867538 36.646642-29.864168 72.689532-62.565964 102.990652-99.31289 5.294586-5.424546 8.755408-12.468986 9.92607-19.9821 0-0.036839 0.00921-0.091074 0.01842-0.128937 0.055259-0.326435 0.091074-0.669242 0.128937-1.00898 0.036839-0.281409 0.092098-0.572028 0.11154-0.86367 0.01842-0.194428 0.037862-0.399089 0.055259-0.604774 0.029676-0.397043 0.065492-0.785899 0.083911-1.195222 0.026606-0.603751 0.065492-1.195222 0.065492-1.808182S988.632491 298.859014 988.604862 298.25731zM513.746784 485.582719c-98.353029 0-178.082908-79.729879-178.082908-178.084954 0-98.352005 79.729879-178.081884 178.082908-178.081884s178.084954 79.729879 178.084954 178.081884C691.831738 405.85284 612.099812 485.582719 513.746784 485.582719zM513.746784 218.458869c-49.177026 0-89.041966 39.863916-89.041966 89.037872 0 49.179073 39.86494 89.044012 89.041966 89.044012 49.177026 0 89.041966-39.86494 89.041966-89.044012C602.788749 258.322785 562.92381 218.458869 513.746784 218.458869z" transform="translate(0, 812) scale(1, -1)"/>
</svg>
