<?xml version="1.0" encoding="utf-8"?>
<!DOCTYPE svg PUBLIC "-//W3C//DTD SVG 1.1//EN" "http://www.w3.org/Graphics/SVG/1.1/DTD/svg11.dtd">
<svg version="1.1" id="图形" xmlns="http://www.w3.org/2000/svg" xmlns:xlink="http://www.w3.org/1999/xlink" x="0px" y="0px" width="1024px" height="1024px" viewBox="0 0 1024 1024" enable-background="new 0 0 1024 1024" xml:space="preserve">
  <path fill="#272636" d="M512.001535 749.610044c-248.313435 0-449.610044-201.296609-449.610044-449.609021 0-130.899282 55.939033-248.730944 145.215336-330.901409 0.127913-0.115634 0.25685-0.234337 0.385786-0.354064-56.17337 5.817496-93.084025-2.579755-123.392308-18.203594-12.535501-9.679453-14.921851-18.008142-13.985526-28.652574 3.240811-17.610076 15.477506-17.995863 26.946722-16.033162 10.666944 1.825578 93.847411 25.029046 205.590402-4.112668 62.405305-32.79287 133.458571-51.354622 208.848609-51.354622 248.311389 0 449.609021 201.297632 449.609021 449.610044C961.611579 548.313435 760.313947 749.610044 512.001535 749.610044zM679.776679 593.577339c68.886927 0 124.731816-55.842843 124.731816-124.731816 0-68.88488-55.841819-124.731816-124.731816-124.731816-68.88488 0-124.729769 55.843866-124.729769 124.731816C555.04691 537.732449 610.890776 593.577339 679.776679 593.577339zM352.962356 593.577339c68.886927 0 124.731816-55.842843 124.731816-124.731816 0-68.88488-55.842843-124.731816-124.731816-124.731816-68.88488 0-124.730793 55.843866-124.730793 124.731816C228.232586 537.732449 284.075429 593.577339 352.962356 593.577339zM353.075943 8.470297c-68.886927 0-124.730793 55.843866-124.730793 124.731816 0 68.885903 55.841819 124.731816 124.730793 124.731816 68.88488 0 124.730793-55.842843 124.730793-124.731816C477.806735 64.315186 421.962869 8.470297 353.075943 8.470297zM512.000512 227.460894c-40.060391 0-72.53706 32.477692-72.53706 72.542176 0 40.059368 32.475646 72.538083 72.53706 72.538083 40.062438 0 72.539106-32.476669 72.539106-72.538083C584.536548 259.938586 552.062949 227.460894 512.000512 227.460894zM679.88822 8.470297c-68.88488 0-124.731816 55.843866-124.731816 124.731816 0 68.885903 55.843866 124.731816 124.731816 124.731816 68.88488 0 124.731816-55.842843 124.731816-124.731816C804.620036 64.315186 748.775146 8.470297 679.88822 8.470297z" transform="translate(0, 812) scale(1, -1)"/>
</svg>
