<?xml version="1.0" encoding="utf-8"?>
<!DOCTYPE svg PUBLIC "-//W3C//DTD SVG 1.1//EN" "http://www.w3.org/Graphics/SVG/1.1/DTD/svg11.dtd">
<svg version="1.1" id="图形" xmlns="http://www.w3.org/2000/svg" xmlns:xlink="http://www.w3.org/1999/xlink" x="0px" y="0px" width="1024px" height="1024px" viewBox="0 0 1024 1024" enable-background="new 0 0 1024 1024" xml:space="preserve">
  <path fill="#555" d="M916.102594 42.055207 699.460486 42.055207l-57.770751 0 0-72.214718 57.770751-57.770751 0-14.443967-375.512443 0L323.948043-87.92924l57.770751 57.770751 0 72.214718-57.770751 0L107.305935 42.05623c-23.930015 0-43.327808 19.399839-43.327808 43.330878L63.978127 663.094622c0 23.931039 19.397792 43.328831 43.327808 43.328831l808.79666 0c23.931039 0 43.329854-19.397792 43.329854-43.328831l0-577.708538C959.432449 61.455045 940.033633 42.055207 916.102594 42.055207zM901.660674 648.652701 121.748878 648.652701l0-491.057015 779.911796 0L901.660674 648.652701z" transform="translate(0, 812) scale(1, -1)"/>
</svg>
