<?xml version="1.0" encoding="utf-8"?>
<!DOCTYPE svg PUBLIC "-//W3C//DTD SVG 1.1//EN" "http://www.w3.org/Graphics/SVG/1.1/DTD/svg11.dtd">
<svg version="1.1" id="图形" xmlns="http://www.w3.org/2000/svg" xmlns:xlink="http://www.w3.org/1999/xlink" x="0px" y="0px" width="1024px" height="1024px" viewBox="0 0 1024 1024" enable-background="new 0 0 1024 1024" xml:space="preserve">
  <path fill="#272636" d="M900.05613 455.25704c0 94.003977-52.441373 195.261149-167.366845 195.261149-94.003977 0-195.261149-63.877843-195.261149-167.366845 0-15.34243-12.552897-27.894304-27.894304-27.894304-15.34243 0-27.894304 12.552897-27.894304 27.894304 0 103.487979-101.257172 167.366845-195.261149 167.366845-114.925473 0-167.366845-101.257172-167.366845-195.261149 0-231.80239 318.275857-450.495204 390.522298-497.079172C581.501934 4.762859 900.05613 223.734012 900.05613 455.25704zM732.689285 706.307819c146.44535 0 223.155453-126.361943 223.155453-251.049756 0-291.217594-414.232302-543.383778-432.084902-553.983183-4.184299-2.51017-9.204639-3.904936-14.226003-3.904936-5.021364 0-10.041704 1.394766-14.505365 3.904936C477.455229-88.125715 63.222927 164.039445 63.222927 455.25704c0 124.687814 76.710103 251.049756 223.155453 251.049756 97.072873 0 181.313485-49.094138 223.155453-120.782877C551.375799 657.213681 635.617435 706.307819 732.689285 706.307819z" transform="translate(0, 812) scale(1, -1)"/>
</svg>
