<?xml version="1.0" encoding="utf-8"?>
<!DOCTYPE svg PUBLIC "-//W3C//DTD SVG 1.1//EN" "http://www.w3.org/Graphics/SVG/1.1/DTD/svg11.dtd">
<svg version="1.1" id="图形" xmlns="http://www.w3.org/2000/svg" xmlns:xlink="http://www.w3.org/1999/xlink" x="0px" y="0px" width="1024px" height="1024px" viewBox="0 0 1024 1024" enable-background="new 0 0 1024 1024" xml:space="preserve">
  <path fill="#272636" d="M512 812C229.248 812 0 582.752 0 300c0-282.752 229.248-512 512-512 282.752 0 512 229.248 512 512C1024 582.752 794.752 812 512 812zM512-189.856c-270.08 0-489.856 219.776-489.856 489.856S241.92 789.856 512 789.856 1001.856 570.08 1001.856 300 782.08-189.856 512-189.856zM441.536 506.272c-20.8 23.04-44.352 46.72-70.656 71.232L339.648 552.288c24.128-25.216 46.4-50.24 66.88-75.072L441.536 506.272zM731.392 554.464l-37.824 23.552c-18.24-27.776-39.616-54.272-64.128-79.424l32.896-24.64C687.552 499.872 710.592 526.688 731.392 554.464zM806.464 333.088 806.464 370.4 484.8 370.4c13.888 20.416 25.728 41.792 35.648 64.128l258.112 0L778.56 471.712l-243.84 0c11.328 32.128 21.888 67.008 31.808 104.64L522.624 585.696C513.856 544.416 502.72 506.4 489.216 471.712L297.984 471.712l0-37.248 174.784 0C461.824 411.808 448.64 390.432 433.344 370.4L274.432 370.4l0-37.248 126.592 0C364.8 296.224 320.064 264.8 266.752 238.88c10.56-12.032 19.712-24.32 27.392-36.736C320.832 217.12 345.664 233.184 368.64 250.4l0-28.48 75.648 0c-5.12-33.984-16.448-60.672-33.984-80-22.272-25.536-63.552-46.016-123.84-61.376 7.296-10.944 15.36-24.256 24.128-40 64.64 19.712 109.056 43.456 133.184 71.232 22.272 24.448 36.864 61.184 43.84 110.144l163.264 0c-4.032-36.16-7.68-64.512-10.944-84.928-4.352-26.304-22.656-39.424-54.784-39.424-26.688 0-56.256 1.28-88.768 3.84 5.12-15.36 8.96-30.336 11.52-44.928 43.84-0.768 73.792-1.088 89.856-1.088 48.96-0.384 77.248 24.448 84.928 74.496 4.736 35.456 9.664 74.88 14.784 118.336 25.6-16.832 54.08-30.528 85.504-41.088 9.856 14.592 19.904 28.48 30.144 41.664-63.936 13.12-115.776 41.28-155.648 84.352L806.464 333.152zM681.024 259.168 379.648 259.168C408.832 281.76 434.432 306.4 456.32 333.088l152.32 0C629.12 304.224 653.248 279.584 681.024 259.168z" transform="translate(0, 812) scale(1, -1)"/>
</svg>
