<?xml version="1.0" encoding="utf-8"?>
<!DOCTYPE svg PUBLIC "-//W3C//DTD SVG 1.1//EN" "http://www.w3.org/Graphics/SVG/1.1/DTD/svg11.dtd">
<svg version="1.1" id="图形" xmlns="http://www.w3.org/2000/svg" xmlns:xlink="http://www.w3.org/1999/xlink" x="0px" y="0px" width="1024px" height="1024px" viewBox="0 0 1024 1024" enable-background="new 0 0 1024 1024" xml:space="preserve">
  <path fill="#272636" d="M866.975197 291.543398l0-195.773825c0-48.864918-17.3389-90.636277-52.016701-125.314077s-76.449159-52.016701-125.314077-52.016701L177.352777-81.561206c-48.864918 0-90.636277 17.3389-125.314077 52.016701s-52.016701 76.449159-52.017724 125.314077L0.020976 608.060191c0 48.864918 17.3389 90.636277 52.017724 125.314077S128.488883 785.390969 177.352777 785.390969l512.290619 0c25.850761 0 49.862641-5.122671 72.03564-15.369036 6.147-2.889817 9.851369-7.618515 11.113105-14.186094 1.208525-6.988158-0.630357-12.951987-5.516644-17.890462l-30.185486-30.185486c-4.098341-4.098341-8.827039-6.147-14.186094-6.147-1.208525 0-3.047406 0.420579-5.516644 1.260713-9.457396 2.469238-18.705014 3.704368-27.742854 3.704368L177.352777 706.577972c-27.112498 0-50.309826-9.641591-69.593008-28.924773s-28.924773-42.48051-28.924773-69.593008l0-512.290619c0-27.112498 9.641591-50.309826 28.924773-69.593008s42.48051-28.924773 69.593008-28.924773l512.290619 0c27.112498 0 50.309826 9.641591 69.593008 28.924773 19.283182 19.283182 28.924773 42.48051 28.924773 69.593008L788.161177 252.135876c0 5.359055 1.838881 9.877975 5.516644 13.555737l39.406498 39.406498c4.098341 4.098341 8.827039 6.147 14.186094 6.147 2.469238 0 4.938476-0.603751 7.408737-1.812275C862.876855 306.176676 866.975197 300.212848 866.975197 291.543398zM1009.234201 592.691155 508.056688 91.513642c-9.825786-9.825786-21.516036-14.738679-35.071773-14.738679-13.555737 0-25.247011 4.912893-35.071773 14.738679L173.175641 356.249095c-9.825786 9.825786-14.738679 21.516036-14.738679 35.071773 0 13.555737 4.912893 25.247011 14.738679 35.071773l67.700915 67.700915c9.825786 9.825786 21.516036 14.738679 35.071773 14.738679s25.247011-4.912893 35.071773-14.738679l161.962765-161.962765L871.388716 730.53664c9.825786 9.825786 21.516036 14.738679 35.071773 14.738679 13.555737 0 25.247011-4.912893 35.071773-14.738679l67.700915-67.700915c9.825786-9.825786 14.738679-21.516036 14.738679-35.071773C1023.97288 614.207192 1019.059987 602.516942 1009.234201 592.691155z" transform="translate(0, 812) scale(1, -1)"/>
</svg>
