<?xml version="1.0" encoding="utf-8"?>
<!DOCTYPE svg PUBLIC "-//W3C//DTD SVG 1.1//EN" "http://www.w3.org/Graphics/SVG/1.1/DTD/svg11.dtd">
<svg version="1.1" id="图形" xmlns="http://www.w3.org/2000/svg" xmlns:xlink="http://www.w3.org/1999/xlink" x="0px" y="0px" width="1024px" height="1024px" viewBox="0 0 1024 1024" enable-background="new 0 0 1024 1024" xml:space="preserve">
  <path fill="#555" d="M223.403 613.459l148.559 0 0-58.641-148.559 0 0 58.641ZM513.995 388.177c-105.256 0-190.585-85.328-190.585-190.585 0-105.257 85.329-190.584 190.585-190.584 105.257 0 190.584 85.327 190.584 190.584C704.579 302.849 619.252 388.177 513.995 388.177zM513.995 26.555c-94.461 0-171.038 76.577-171.038 171.037 0 94.462 76.577 171.038 171.038 171.038s171.037-76.576 171.037-171.038C685.032 103.132 608.456 26.555 513.995 26.555zM505.027 468.775c-119.571 0-234.119-21.487-340.014-60.786l0-442.747c0-17.631 14.293-31.924 31.923-31.924l618.489 0c17.631 0 31.924 14.293 31.924 31.924L847.349 407.128C740.811 446.974 625.467 468.775 505.027 468.775zM823.821-12.602c0-16.414-13.308-29.722-29.722-29.722L218.262-42.324c-16.415 0-29.722 13.308-29.722 29.722L188.54 386.709c98.592 36.589 205.242 56.595 316.566 56.595 112.134 0 219.524-20.299 318.715-57.396L823.821-12.602zM815.425 673.318 196.936 673.318c-17.63 0-31.923-14.292-31.923-31.923l0-207.448c106.217 39.571 221.163 61.216 341.168 61.216 120.006 0 234.951-21.645 341.168-61.216L847.349 641.395C847.349 659.026 833.056 673.318 815.425 673.318zM818.935 469.521c-97.371 36.276-202.743 56.118-312.754 56.118-110.011 0-215.383-19.842-312.754-56.118L193.427 614.733c0 16.163 13.103 29.265 29.265 29.265L789.67 643.998c16.162 0 29.265-13.102 29.265-29.265L818.935 469.521zM610.421 614.437c-16.732 0-30.298-13.565-30.298-30.298s13.565-30.298 30.298-30.298c16.733 0 30.298 13.565 30.298 30.298S627.154 614.437 610.421 614.437zM610.421 569.479c-8.097 0-14.66 6.564-14.66 14.66 0 8.097 6.563 14.661 14.66 14.661s14.66-6.564 14.66-14.661C625.081 576.043 618.518 569.479 610.421 569.479zM680.951 614.437c-16.732 0-30.299-13.565-30.299-30.298 0-16.732 13.566-30.298 30.299-30.298 16.733 0 30.298 13.565 30.298 30.298C711.249 600.872 697.685 614.437 680.951 614.437zM680.951 569.479c-8.097 0-14.66 6.565-14.66 14.66 0 8.098 6.563 14.661 14.66 14.661s14.66-6.563 14.66-14.661C695.611 576.043 689.048 569.479 680.951 569.479zM752.298 614.437c-16.732 0-30.298-13.565-30.298-30.298 0-16.732 13.565-30.298 30.298-30.298 16.733 0 30.298 13.565 30.298 30.298C782.596 600.872 769.031 614.437 752.298 614.437zM752.298 569.479c-8.097 0-14.66 6.565-14.66 14.66 0 8.098 6.563 14.661 14.66 14.661s14.66-6.563 14.66-14.661C766.958 576.043 760.395 569.479 752.298 569.479zM650.652 194.138c-50.17-33.824-93.826-16.559-136.829 7.819-43.004 24.377-101.319 38.173-136.83-7.819 0-75.568 61.261-136.83 136.83-136.83C608.742 57.308 657.82 144.349 650.652 194.138zM512.285 83.124c-59.415 0-107.582 42.302-107.582 101.719 33.863 29.225 73.771 8.698 107.582-10.468 33.813-19.167 63.763-33.479 105.629-14.943C604.408 124.099 579.306 83.124 512.285 83.124z" transform="translate(0, 812) scale(1, -1)"/>
</svg>
