<?xml version="1.0" encoding="utf-8"?>
<!DOCTYPE svg PUBLIC "-//W3C//DTD SVG 1.1//EN" "http://www.w3.org/Graphics/SVG/1.1/DTD/svg11.dtd">
<svg version="1.1" id="图形" xmlns="http://www.w3.org/2000/svg" xmlns:xlink="http://www.w3.org/1999/xlink" x="0px" y="0px" width="1024px" height="1024px" viewBox="0 0 1024 1024" enable-background="new 0 0 1024 1024" xml:space="preserve">
  <path fill="#272636" d="M361.503846 429.171968c0-27.324314-22.143181-49.468621-49.468621-49.468621-27.317248 0-49.470669 22.144307-49.470669 49.468621 0 27.315098 22.153421 49.467597 49.470669 49.467597C339.360666 478.639565 361.503846 456.487066 361.503846 429.171968M361.503846 429.171968c0-27.324314-22.143181-49.468621-49.468621-49.468621-27.317248 0-49.470669 22.144307-49.470669 49.468621 0 27.315098 22.153421 49.467597 49.470669 49.467597C339.360666 478.639565 361.503846 456.487066 361.503846 429.171968M796.873011 429.171968c0-27.324314-22.144205-49.468621-49.469645-49.468621-27.317248 0-49.469645 22.144307-49.469645 49.468621 0 27.315098 22.151373 49.467597 49.469645 49.467597C774.728806 478.639565 796.873011 456.487066 796.873011 429.171968M852.259635-127.328614 199.206993-127.328614c-55.014195 0-99.772314 44.763546-99.772314 99.769242l0 507.918032c0 55.009894 44.758221 99.76617 99.772314 99.76617l653.052677 0c55.014195 0 99.77129-44.756378 99.77129-99.76617l0-507.918032C952.031027-82.565069 907.27383-127.328614 852.259635-127.328614zM199.207014 525.706598c-25.004442 0-45.350707-20.346368-45.350707-45.34784l0-507.918032c0-24.997274 20.346163-45.349888 45.350707-45.349888l653.052677 0c25.004442 0 45.350707 20.353536 45.350707 45.349888l0 507.918032c0 25.002394-20.347187 45.34784-45.350707 45.34784L199.206993 525.706598zM770.627174 435.00887l-54.42063 0L716.206544 661.755114c0 25.002394-20.347187 45.34784-45.350707 45.34784L380.610799 707.102954c-25.004442 0-45.350707-20.346368-45.350707-45.34784l0-226.746234-54.42063 0L280.839462 661.755114c0 55.009894 44.757197 99.767194 99.772314 99.767194L670.855865 761.522308c55.014195 0 99.77129-44.756378 99.77129-99.767194L770.627154 435.00888z" transform="translate(0, 812) scale(1, -1)"/>
</svg>
