<?xml version="1.0" encoding="utf-8"?>
<!DOCTYPE svg PUBLIC "-//W3C//DTD SVG 1.1//EN" "http://www.w3.org/Graphics/SVG/1.1/DTD/svg11.dtd">
<svg version="1.1" id="图形" xmlns="http://www.w3.org/2000/svg" xmlns:xlink="http://www.w3.org/1999/xlink" x="0px" y="0px" width="1024px" height="1024px" viewBox="0 0 1024 1024" enable-background="new 0 0 1024 1024" xml:space="preserve">
  <path fill="#272636" d="M978.868 320.948c-6.142 6.51-17.19 14.271-34.951 14.271h-46.285c-36.559 24.056-112.637 74.376-125.249 83.92-10.563 7.995-16.91 14.469-18.865 19.244-1.553 3.791-1.52 9.5-1.317 20.099 0.061 3.229 0.131 6.889 0.131 10.799 0 58.394-40.141 96.478-47.255 102.767-6.205 5.888-64.731 61.34-93.035 85.179-33.968 28.609-73.153 36.648-77.511 37.47-1.835 0.347-3.697 0.521-5.566 0.521h-194.063c-44.618 0-75.997-30.863-84.006-39.626l-210.321-185.193-0.365 0.053c-0.196-1.355-4.773-33.598-2.449-71.036 3.449-55.585 20.048-94.427 49.336-115.446 36.308-26.056 59.59-85.638 65.486-106.351 3.677-13.079 15.592-21.884 28.856-21.883 1.33 0 2.676 0.089 4.026 0.271 5.969 0.803 59.211 8.748 90.336 39.874 38.139 38.138 109.523 166.267 117.537 180.752l-52.499 29.048c-20.647-37.31-80.199-140.109-107.465-167.374-7.768-7.769-20.739-13.442-32.539-17.221-2.931 7.379-6.557 15.822-10.905 24.77-18.895 38.887-41.724 68.11-67.852 86.861-13.41 9.623-22.066 34.302-24.375 69.49-0.939 14.319-0.635 27.927-0.023 38.53l194.234 171.029c1.189 1.047 1.991 1.825 2.989 3.032 5.126 5.784 21.998 20.421 39.998 20.421h190.688c7.161-1.809 29.375-8.366 47.798-23.884 27.909-23.504 90.191-82.625 90.818-83.219 0.472-0.448 0.957-0.88 1.458-1.297 0.266-0.222 26.666-23.178 26.666-57.538 0-3.339-0.061-6.55-0.12-9.656-0.267-14.028-0.544-28.534 5.783-43.982 6.341-15.484 18.115-29.16 38.178-44.346 17.61-13.328 123.944-83.227 136.011-91.153 4.892-3.214 10.617-4.926 16.47-4.926h42.867v-52.018l-110.98-107.964c-0.678-0.66-0.548-0.46-0.958-0.948-2.628-2.396-21.47-18.132-62.803-18.132h-306.709c-10.674 0.457-50.622-1.154-94.504-45.037-19.493-19.492-187.159-195.801-194.287-203.297l43.48-41.347c1.74 1.831 174.27 183.254 193.233 202.217 25.455 25.456 45.023 27.397 48.7 27.53 1.176-0.201 0.97-0.067 2.586-0.067h307.5c66.6 0 99.517 29.852 105.925 36.389l119.736 116.483c5.806 5.647 9.082 13.403 9.082 21.503v76.576c0.148 5.989-0.789 21.263-12.653 33.84zM931.532 288.492c0.007 0.328 0.023 0.621 0.038 0.874-0.017-0.291-0.030-0.582-0.038-0.874zM632.469 364.606v63.278c0 15.533-13.237 28.124-29.564 28.124-16.328 0-29.565-12.592-29.565-28.124v-63.278c0-15.532 13.237-28.124 29.565-28.124 16.327 0 29.564 12.592 29.564 28.124z" transform="translate(0, 812) scale(1, -1)"/>
</svg>
